<?xml version="1.0" encoding="UTF-8"?> <svg xmlns="http://www.w3.org/2000/svg" viewBox="0 0 752.49 215.16"><defs><style> .cls-1 { fill: #58595b; } .cls-2 { fill: #eca154; } .cls-3 { fill: #3eb1c8; } .cls-4 { fill: maroon; } .cls-5 { fill: #789d4a; } .cls-6 { fill: #007396; } .cls-7 { fill: #a4343a; } .cls-8 { fill: #de7c00; } </style></defs><g id="rule"><rect x="211.81" y="79.37" width="492.47" height="1.67"></rect></g><g id="secondary"><g><path class="cls-1" d="M209.69,118.95l4-4.8c2.77,2.29,5.68,3.74,9.2,3.74,2.77,0,4.44-1.1,4.44-2.9v-.09c0-1.72-1.06-2.6-6.2-3.92-6.21-1.58-10.21-3.3-10.21-9.42v-.09c0-5.59,4.49-9.29,10.78-9.29,4.49,0,8.32,1.41,11.44,3.92l-3.52,5.1c-2.73-1.89-5.41-3.04-8.01-3.04s-3.96,1.19-3.96,2.68v.09c0,2.02,1.32,2.68,6.65,4.05,6.25,1.63,9.77,3.87,9.77,9.24v.09c0,6.12-4.67,9.55-11.31,9.55-4.67,0-9.37-1.63-13.07-4.93Z"></path><path class="cls-1" d="M247.3,98.89h-9.37v-6.25h25.52v6.25h-9.37v24.56h-6.78v-24.56Z"></path><path class="cls-1" d="M268.29,110.24v-17.6h6.78v17.43c0,5.02,2.51,7.61,6.65,7.61s6.64-2.51,6.64-7.39v-17.65h6.78v17.38c0,9.33-5.24,13.91-13.51,13.91s-13.33-4.62-13.33-13.69Z"></path><path class="cls-1" d="M302.83,92.64h12.01c9.68,0,16.37,6.65,16.37,15.31v.09c0,8.67-6.69,15.4-16.37,15.4h-12.01v-30.8ZM309.61,98.75v18.57h5.24c5.54,0,9.29-3.74,9.29-9.2v-.09c0-5.46-3.74-9.29-9.29-9.29h-5.24Z"></path><path class="cls-1" d="M337.62,92.64h23.24v6.03h-16.5v6.25h14.52v6.03h-14.52v6.47h16.72v6.03h-23.46v-30.8Z"></path><path class="cls-1" d="M367.96,92.64h6.25l14.43,18.97v-18.97h6.69v30.8h-5.76l-14.92-19.58v19.58h-6.69v-30.8Z"></path><path class="cls-1" d="M409.77,98.89h-9.37v-6.25h25.52v6.25h-9.37v24.56h-6.78v-24.56Z"></path><path class="cls-1" d="M445.63,92.64h12.01c9.68,0,16.37,6.65,16.37,15.31v.09c0,8.67-6.69,15.4-16.37,15.4h-12.01v-30.8ZM452.4,98.75v18.57h5.24c5.54,0,9.29-3.74,9.29-9.2v-.09c0-5.46-3.74-9.29-9.29-9.29h-5.24Z"></path><path class="cls-1" d="M480.63,92.64h6.78v30.8h-6.78v-30.8Z"></path><path class="cls-1" d="M493.29,118.95l4-4.8c2.77,2.29,5.68,3.74,9.2,3.74,2.77,0,4.44-1.1,4.44-2.9v-.09c0-1.72-1.06-2.6-6.21-3.92-6.2-1.58-10.21-3.3-10.21-9.42v-.09c0-5.59,4.49-9.29,10.78-9.29,4.49,0,8.32,1.41,11.44,3.92l-3.52,5.1c-2.73-1.89-5.41-3.04-8.01-3.04s-3.96,1.19-3.96,2.68v.09c0,2.02,1.32,2.68,6.64,4.05,6.25,1.63,9.77,3.87,9.77,9.24v.09c0,6.12-4.67,9.55-11.31,9.55-4.67,0-9.37-1.63-13.07-4.93Z"></path><path class="cls-1" d="M533.64,92.42h6.25l13.2,31.02h-7.08l-2.82-6.91h-13.03l-2.82,6.91h-6.91l13.2-31.02ZM540.77,110.55l-4.09-9.99-4.09,9.99h8.18Z"></path><path class="cls-1" d="M557.97,92.64h14.3c3.52,0,6.29.97,8.05,2.73,1.41,1.41,2.11,3.12,2.11,5.24v.09c0,3.48-1.85,5.41-4.05,6.64,3.56,1.36,5.76,3.43,5.76,7.57v.09c0,5.63-4.58,8.45-11.53,8.45h-14.65v-30.8ZM575.7,101.75c0-2.02-1.58-3.17-4.44-3.17h-6.69v6.51h6.25c2.99,0,4.88-.97,4.88-3.26v-.09ZM572.4,110.72h-7.83v6.78h8.05c2.99,0,4.8-1.06,4.8-3.34v-.09c0-2.07-1.54-3.34-5.02-3.34Z"></path><path class="cls-1" d="M590.63,92.64h6.78v30.8h-6.78v-30.8Z"></path><path class="cls-1" d="M605.52,92.64h6.78v24.64h15.36v6.16h-22.14v-30.8Z"></path><path class="cls-1" d="M632.82,92.64h6.78v30.8h-6.78v-30.8Z"></path><path class="cls-1" d="M654.11,98.89h-9.37v-6.25h25.52v6.25h-9.37v24.56h-6.78v-24.56Z"></path><path class="cls-1" d="M685.65,111.3l-11.84-18.66h7.92l7.35,12.37,7.48-12.37h7.7l-11.84,18.53v12.28h-6.78v-12.15Z"></path><path class="cls-1" d="M209.69,162.95l4-4.8c2.77,2.29,5.68,3.74,9.2,3.74,2.77,0,4.44-1.1,4.44-2.9v-.09c0-1.72-1.06-2.6-6.2-3.92-6.21-1.58-10.21-3.3-10.21-9.42v-.09c0-5.59,4.49-9.29,10.78-9.29,4.49,0,8.32,1.41,11.44,3.92l-3.52,5.1c-2.73-1.89-5.41-3.04-8.01-3.04s-3.96,1.19-3.96,2.68v.09c0,2.02,1.32,2.68,6.65,4.05,6.25,1.63,9.77,3.87,9.77,9.24v.09c0,6.12-4.67,9.55-11.31,9.55-4.67,0-9.37-1.63-13.07-4.93Z"></path><path class="cls-1" d="M240.48,136.64h23.24v6.03h-16.5v6.25h14.52v6.03h-14.52v6.47h16.72v6.03h-23.46v-30.8Z"></path><path class="cls-1" d="M270.82,136.64h14.08c3.92,0,6.95,1.1,8.98,3.12,1.72,1.72,2.64,4.14,2.64,7.04v.09c0,4.97-2.68,8.1-6.6,9.55l7.53,11h-7.92l-6.6-9.86h-5.32v9.86h-6.78v-30.8ZM284.46,151.6c3.3,0,5.19-1.76,5.19-4.36v-.09c0-2.9-2.02-4.4-5.33-4.4h-6.73v8.85h6.87Z"></path><path class="cls-1" d="M299.28,136.64h7.48l8.05,21.7,8.05-21.7h7.3l-12.45,31.02h-5.99l-12.45-31.02Z"></path><path class="cls-1" d="M335.19,136.64h6.78v30.8h-6.78v-30.8Z"></path><path class="cls-1" d="M348.5,152.13v-.09c0-8.76,6.6-15.93,16.06-15.93,5.81,0,9.29,1.94,12.15,4.75l-4.31,4.97c-2.38-2.16-4.8-3.48-7.88-3.48-5.19,0-8.93,4.31-8.93,9.59v.09c0,5.28,3.65,9.68,8.93,9.68,3.52,0,5.68-1.41,8.1-3.61l4.31,4.36c-3.17,3.39-6.69,5.5-12.63,5.5-9.07,0-15.8-7-15.8-15.84Z"></path><path class="cls-1" d="M382.35,136.64h23.24v6.03h-16.5v6.25h14.52v6.03h-14.52v6.47h16.72v6.03h-23.46v-30.8Z"></path><path class="cls-1" d="M410.25,162.95l4-4.8c2.77,2.29,5.68,3.74,9.2,3.74,2.77,0,4.44-1.1,4.44-2.9v-.09c0-1.72-1.06-2.6-6.2-3.92-6.21-1.58-10.21-3.3-10.21-9.42v-.09c0-5.59,4.49-9.29,10.78-9.29,4.49,0,8.32,1.41,11.44,3.92l-3.52,5.1c-2.73-1.89-5.41-3.04-8.01-3.04s-3.96,1.19-3.96,2.68v.09c0,2.02,1.32,2.68,6.64,4.05,6.25,1.63,9.77,3.87,9.77,9.24v.09c0,6.12-4.67,9.55-11.31,9.55-4.67,0-9.37-1.63-13.07-4.93Z"></path></g><g><g><path class="cls-8" d="M73.59,142.91c-13.98,0-25.32-11.34-25.32-25.32s11.34-25.32,25.32-25.32"></path><path class="cls-2" d="M48.27,117.59c0,13.98,11.34,25.32,25.32,25.32v-25.32h-25.32Z"></path><g><path class="cls-3" d="M73.62,168.23c13.98,0,25.32-11.34,25.32-25.32,0-13.98-11.34-25.32-25.32-25.32"></path><path class="cls-6" d="M98.94,142.91c0,13.98-11.34,25.32-25.32,25.32v-25.32h25.32Z"></path></g><circle class="cls-5" cx="85.84" cy="104.8" r="8.98"></circle><circle class="cls-7" cx="60.32" cy="155.84" r="8.98"></circle></g><path class="cls-8" d="M173.33,142.91c-13.98,0-25.32-11.34-25.32-25.32s11.34-25.32,25.32-25.32"></path><path class="cls-2" d="M148.01,117.59c0,13.98,11.34,25.32,25.32,25.32v-25.32h-25.32Z"></path><g><path class="cls-3" d="M173.35,168.23c13.98,0,25.32-11.34,25.32-25.32,0-13.98-11.34-25.32-25.32-25.32"></path><path class="cls-6" d="M198.67,142.91c0,13.98-11.34,25.32-25.32,25.32v-25.32h25.32Z"></path></g><g><path class="cls-4" d="M105.68,168.11c20.99,0,38-17.01,38-38,0-20.99-17.01-38-38-38"></path><path class="cls-7" d="M143.68,130.11c0,20.99-17.01,38-38,38v-38h38Z"></path></g><circle class="cls-7" cx="185.58" cy="104.8" r="8.98"></circle><circle class="cls-5" cx="160.05" cy="155.84" r="8.98"></circle></g></g><g id="primary"><g><path class="cls-4" d="M217.17,53.27h-5.54v-3.69h15.08v3.69h-5.54v14.51h-4v-14.51Z"></path><path class="cls-4" d="M230.69,49.58h4v7.2h7.38v-7.2h4v18.2h-4v-7.31h-7.38v7.31h-4v-18.2Z"></path><path class="cls-4" d="M251.36,49.58h13.73v3.56h-9.75v3.69h8.58v3.56h-8.58v3.82h9.88v3.56h-13.86v-18.2Z"></path><path class="cls-4" d="M278.11,59.98v-10.4h4v10.3c0,2.96,1.48,4.5,3.93,4.5s3.93-1.48,3.93-4.37v-10.43h4v10.27c0,5.51-3.09,8.22-7.98,8.22s-7.88-2.73-7.88-8.09Z"></path><path class="cls-4" d="M298.96,49.58h3.69l8.53,11.21v-11.21h3.95v18.2h-3.41l-8.81-11.57v11.57h-3.95v-18.2Z"></path><path class="cls-4" d="M320.6,49.58h4v18.2h-4v-18.2Z"></path><path class="cls-4" d="M328.5,49.58h4.42l4.76,12.82,4.76-12.82h4.32l-7.36,18.33h-3.54l-7.36-18.33Z"></path><path class="cls-4" d="M350.47,49.58h13.73v3.56h-9.75v3.69h8.58v3.56h-8.58v3.82h9.88v3.56h-13.86v-18.2Z"></path><path class="cls-4" d="M368.8,49.58h8.32c2.31,0,4.11.65,5.3,1.85,1.01,1.01,1.56,2.44,1.56,4.16v.05c0,2.94-1.59,4.78-3.9,5.64l4.45,6.5h-4.68l-3.9-5.82h-3.15v5.82h-4v-18.2ZM376.86,58.42c1.95,0,3.07-1.04,3.07-2.57v-.05c0-1.72-1.2-2.6-3.15-2.6h-3.98v5.23h4.06Z"></path><path class="cls-4" d="M387.26,65.13l2.37-2.83c1.64,1.35,3.35,2.21,5.43,2.21,1.64,0,2.63-.65,2.63-1.72v-.05c0-1.01-.62-1.53-3.67-2.31-3.67-.94-6.03-1.95-6.03-5.56v-.05c0-3.3,2.65-5.49,6.37-5.49,2.65,0,4.91.83,6.76,2.31l-2.08,3.02c-1.61-1.12-3.2-1.79-4.73-1.79s-2.34.7-2.34,1.59v.05c0,1.2.78,1.59,3.93,2.39,3.69.96,5.77,2.29,5.77,5.46v.05c0,3.61-2.76,5.64-6.68,5.64-2.76,0-5.54-.96-7.72-2.91Z"></path><path class="cls-4" d="M406.24,49.58h4v18.2h-4v-18.2Z"></path><path class="cls-4" d="M419.94,53.27h-5.54v-3.69h15.08v3.69h-5.54v14.51h-4v-14.51Z"></path><path class="cls-4" d="M438.58,60.6l-6.99-11.03h4.68l4.34,7.31,4.42-7.31h4.55l-6.99,10.95v7.25h-4v-7.18Z"></path><path class="cls-4" d="M460.89,58.73v-.05c0-5.17,4.08-9.41,9.7-9.41s9.65,4.19,9.65,9.36v.05c0,5.17-4.08,9.41-9.7,9.41s-9.65-4.19-9.65-9.36ZM476.05,58.73v-.05c0-3.12-2.29-5.72-5.51-5.72s-5.46,2.55-5.46,5.67v.05c0,3.12,2.29,5.72,5.51,5.72s5.46-2.55,5.46-5.67Z"></path><path class="cls-4" d="M484.71,49.58h13.86v3.64h-9.85v3.87h8.68v3.64h-8.68v7.05h-4v-18.2Z"></path><path class="cls-4" d="M510.57,58.73v-.05c0-5.17,3.9-9.41,9.49-9.41,3.43,0,5.49,1.14,7.18,2.81l-2.55,2.94c-1.4-1.27-2.83-2.05-4.65-2.05-3.07,0-5.28,2.55-5.28,5.67v.05c0,3.12,2.16,5.72,5.28,5.72,2.08,0,3.35-.83,4.78-2.13l2.55,2.57c-1.87,2-3.95,3.25-7.46,3.25-5.36,0-9.33-4.13-9.33-9.36Z"></path><path class="cls-4" d="M531.48,49.58h4v7.2h7.38v-7.2h4v18.2h-4v-7.31h-7.38v7.31h-4v-18.2Z"></path><path class="cls-4" d="M552.33,49.58h4v18.2h-4v-18.2Z"></path><path class="cls-4" d="M560.99,58.73v-.05c0-5.17,3.9-9.41,9.49-9.41,3.43,0,5.49,1.14,7.18,2.81l-2.55,2.94c-1.4-1.27-2.83-2.05-4.65-2.05-3.07,0-5.28,2.55-5.28,5.67v.05c0,3.12,2.16,5.72,5.28,5.72,2.08,0,3.35-.83,4.78-2.13l2.55,2.57c-1.87,2-3.95,3.25-7.46,3.25-5.36,0-9.33-4.13-9.33-9.36Z"></path><path class="cls-4" d="M588.13,49.45h3.69l7.8,18.33h-4.19l-1.66-4.08h-7.7l-1.66,4.08h-4.08l7.8-18.33ZM592.35,60.16l-2.42-5.9-2.42,5.9h4.84Z"></path><path class="cls-4" d="M601.37,58.73v-.05c0-5.17,4.03-9.41,9.54-9.41,3.28,0,5.25.88,7.15,2.5l-2.52,3.04c-1.4-1.17-2.65-1.85-4.76-1.85-2.91,0-5.23,2.57-5.23,5.67v.05c0,3.33,2.29,5.77,5.51,5.77,1.46,0,2.76-.36,3.77-1.09v-2.6h-4.03v-3.46h7.9v7.9c-1.87,1.59-4.45,2.89-7.77,2.89-5.67,0-9.57-3.98-9.57-9.36Z"></path><path class="cls-4" d="M622.66,58.73v-.05c0-5.17,4.08-9.41,9.7-9.41s9.65,4.19,9.65,9.36v.05c0,5.17-4.08,9.41-9.7,9.41s-9.65-4.19-9.65-9.36ZM637.82,58.73v-.05c0-3.12-2.29-5.72-5.51-5.72s-5.46,2.55-5.46,5.67v.05c0,3.12,2.29,5.72,5.51,5.72s5.46-2.55,5.46-5.67Z"></path></g></g></svg> 