<?xml version="1.0" encoding="utf-8"?>
<!-- Generator: Adobe Illustrator 23.0.0, SVG Export Plug-In . SVG Version: 6.00 Build 0)  -->
<svg version="1.1" id="Layer_1" xmlns="http://www.w3.org/2000/svg" xmlns:xlink="http://www.w3.org/1999/xlink" x="0px" y="0px"
	 viewBox="0 0 752.4 600" style="enable-background:new 0 0 752.4 600;" xml:space="preserve">
<style type="text/css">
	.st0{fill:#FFFFFF;}
</style>
<g>
	<g>
		<path class="st0" d="M722.1,206.7c7.9,1.5,14.4,2.6,16.2-0.6c0.3-0.6,0.3-0.9,0.3-1.5c0-2.4-1.8-5.3-5.9-10
			c-11.2-12.6-31.2-42-37.3-52.3c5.9,1.8,12,3.2,16.5,2.6c3.2-0.3,7.3-0.9,7.9-3.5c0-0.3,0-0.6,0-0.9c0-2.6-2.9-6.2-10-11.2
			c-8.2-6.2-17.3-19.1-22.9-26.7l-2.4-3.2c-4.4-6.2-9.4-9.4-14.4-12.9c6.2,0.6,10.6,0.3,11.8-2.4c1.2-2.4-1.2-4.7-2.9-6.5
			c-10-9.1-35.3-27.3-57-31.2c3.8-4.4,4.4-10.9,4.1-14.7v-1.2l-3.2,0.6l-14.1,1.2c-5,0-10.9-2.6-17.3-5.6
			c-7.6-3.5-16.5-7.6-25.6-7.6c-10.6-0.3-22,2.9-34.4,9.1l-5.6,0.3l-9.7,0.3c-6.2,1.8-16.2,7.6-24.4,18.5
			c-3.8,5.3-2.4,12.6-1.2,18.5c0.9,4.1,1.5,7.6,0.3,9.1c-1.8,1.8-3.5,1.8-5,1.5c-2.9-0.3-5.6-2.1-7.1-4.4l-1.2-2.1l-0.9,2.1
			c-0.6,1.2-0.9,2.4-0.9,3.5c0,2.9,1.8,5.9,5,10c-6.2,0-12.6,2.6-17,7.1c-3.8,3.8-5.6,8.2-5,12.3l0.3,2.1l1.5-1.2
			c5-3.8,10.6-6.5,15.9-7.1l6.2,0.6l11.2,1.8c9.1,0.3,12.9-2.6,16.5-5.9l3.5-2.6c0.9,1.5,6.8,5,7.9,10c0,0.6,0.3,1.2,0.3,1.8
			c0,1.8-0.6,3.5-1.8,5.3c-5.3,8.2-5.9,9.1-9.4,20.3c-3.2,10.6-13.2,14.4-19.4,14.7c0.9-2.6,1.5-6.5,1.8-11.2l0.9-8.5
			c0.9-5.3,2.4-6.5,5-9.1l4.4-4.4l-2.1-0.6c-5.6-1.2-16.5,5.3-22,11.8c-2.1-3.5-5.3-8.5-12.9-8.5h-1.8l0.6,1.5
			c1.5,3.8,3.2,11.5,0,15.6l-3.8,4.1c-5,5.3-11.5,11.2-12.9,18.5c-2.4,0.3-7.6,1.2-13.5,1.2c0.3-1.5,0.6-2.9,0.6-4.7
			c0-0.3,0-0.3,0-0.6c0,0-0.3-7.6-0.6-11.8c2.4,2.4,2.1,2.9,6.8,7.6l0.6-1.2c1.8-2.6,2.6-5.9,2.6-8.8c0-1.5-0.3-2.9-0.6-4.4
			c0,0-1.5-6.5-2.1-9.1l8.2-1.8l4.1-4.4l1.8-2.9l-0.9-0.6c-5.6-3.2-8.2-7.9-11.8-15l-0.9-1.8c-1.5-2.6-2.6-8.8-2.6-12
			c0.3,0,1.2-0.3,1.2-0.3c2.6-1.5,6.2-3.2,7.9-8.2c1.8-5,1.5-8.8-0.9-12l-0.6-0.9l-0.9,0.6c-1.8,1.2-4.4,2.1-6.8,1.5l-2.6-2.1
			l-0.3-4.1l0.6-3.8c-0.3-2.4-2.6-4.4-3.8-5.6c1.2-1.2,3.5-3.2,3.5-3.2l7.3-7.9c0.9-1.5,1.5-4.7,1.5-8.2c0-5.6-1.5-12.3-5.6-17
			l-2.6-2.9L432,7.2l0.6,2.1c0,3.2,0,10.6-2.1,13.5l0,0c-0.6-3.5-0.9-7.9-5.6-7.6l-3.2,1.2l-4.7,2.9l-2.1,0.6c-5,0-9.1-1.8-13.5-4.4
			c-6.2-3.5-13.5-7.6-26.2-7.3C355.6,8.7,348,16,344.7,19.2l-1.5,0.6c-1.8,0-1.8,0-2.4-0.6c-0.6-1.2-1.5-2.6-4.4-2.6
			c-3.2,0-4.4,2.1-5.3,3.8l-1.8,2.4c-7.1,2.4-24.4,10.3-24.7,27.3c-0.3,12,9.1,17.6,14.1,18.8l1.5,0.3v-1.5c0-3.5,1.5-9.4,9.4-9.7
			c2.9,0,5,1.5,6.2,2.9c2.1,2.4,2.9,5,2.6,6.2l-0.3,0.9l9.1,3.2c0,0-10.3-1.2-17.6-0.6c-5.3,0.3-13.8,2.4-13.8,2.4
			c-5.9,1.5-11.8,2.6-15,2.1c-10-1.2-12-8.2-12.6-15.6l-0.3-4.4l-1.8,3.8c-3.8,8.5,0,24.4,10,30c5,2.6,10.3,4.1,15.3,4.4
			c5,0,10.3-1.8,15.9-4.1c5.9-2.4,12.3-5,18.8-5c12,0,16.5,0.6,20,1.8c0.3,0.6,0.3,0.3,0.6,0.9c-2.4,0.6-7.3,2.1-7.3,2.1l-6.8,4.7
			c-3.8,2.6-7.9,5.9-10.9,6.2l-12.3,0.3l1.2,1.8c2.1,2.9,10.9,10,20,10l8.2-1.2c2.9-0.6,4.4-1.2,5.6-0.3c1.2,0.9,1.5,2.6,1.2,4.1
			c-0.3,3.5-3.2,8.2-8.2,10.6l-1.5,0.6l2.1,2.6l4.7,3.8c-5.6,2.9-11.5,3.8-16.5,2.1l-2.4-0.9l2.1,5.6c0,0,2.1,5.3,2.6,7.1
			c-0.9,0.3-6.2,2.6-6.2,2.6l-5.9,3.8c-1.5,1.5-5.3,5.6-6.5,7.3c-4.7-7.3-10.3-12.6-17.3-16.8l-5.9-3.5l-7.9-3.5l-4.1-9.7l-1.8-4.7
			l-2.6-5l-4.1-3.5l-2.1,0.3c0,0-0.3,4.1-1.5,9.1c-0.9,3.8-2.4,7.9-3.2,10.3c-1.2-3.2-2.6-7.9-2.6-7.9l-1.2-5l-3.5-4.7l-4.1-3.2
			l-2.1,12.3l-1.5,4.1c-1.2,3.5-1.8,6.5-1.8,9.4c0,6.5,2.6,10.9,4.4,13.5l1.2,2.4c0-0.3-2.4,0-2.4,0c-2.9-0.3-8.2-0.6-17.3,2.1
			l-12,5.3l-1.8,1.2l-2.6-1.2l-2.1-4.4l1.2-3.5l2.1-9.1l-3.2-7.3l-3.5-7.9c0-0.3,0-0.3,0-0.6c0-4.1,5-10,8.2-13.5
			c0,0,1.2-1.5,2.1-2.4c4.1,3.5,13.2,4.4,18.5,2.9c2.6-0.6,4.1-1.8,4.4-2.9l0.3-1.2l-1.2-0.3c-2.6-0.6-7.3-4.4-8.2-8.5
			c0-0.9,0-1.8,0-2.1c0.3,0.3,2.1,0.3,2.1,0.3c6.5-0.3,8.5-0.6,13.5-8.2l0.9-1.5l-1.5-0.3c-12-2.9-14.4-4.1-15.6-14.1V65.7l0,0v-1.2
			l-0.3-0.6c-1.2-14.7-5.9-25-14.7-31.2c-10-6.8-12.3-7.1-28.2-6.2l-11.8,4.1l-16.8,7.1c-5.3,1.8-19.4,2.9-28.5-0.9l-0.9-0.3
			l-0.6,0.6c-3.5,4.4-4.7,8.5-4.7,12c0,4.7,2.1,8.5,4.1,11.5c-1.8,0.9-7.3,3.5-7.3,3.5c-1.2,0.6-3.8,2.1-3.8,2.1l-11.8,5.9l0,0
			c-2.1,0.6-20.3,7.1-20.3,7.1l-14.7,5.3L77,86.8c-0.9,0-2.4,1.5-2.9,2.4l-0.3,1.2l0.6,1.5c5.3,6.2,13.2,7.1,21.2,7.9
			c1.8,0.3,2.9,0.9,2.9,1.2c0,0.6-1.2,1.2-2.4,1.8c-1.2,0.6-10.3,6.2-10.3,6.2l-34.4,19.7c-2.6,1.2-8.2,3.8-8.2,3.8L25.9,140
			l-8.2,3.5c-1.8,0.9-1.8,2.1-1.8,2.6c0,1.8,1.8,3.5,2.9,3.8c6.5,2.4,29.7,2.4,35.3,1.5l24.4-5l4.7-2.1l9.7-2.6h1.5
			c0.3,0,0.3,0.3,0.3,0.3c-4.1,5.9-11.2,13.2-22.3,21.2l-22.9,14.1l-4.1,2.4l-21.2,10.9l-11.5,5c-3.2,1.2-5.3,5.6-5,9.4
			c0.3,1.8,1.8,6.2,8.8,7.1c15.6,1.5,37.6-4.7,66.1-18.5l0,0c1.5-0.9,2.6-1.5,3.8-2.1c-17,20.3-34.7,35.9-53.2,52.3l-16.5,14.1
			c-4.7,4.1-5.3,11.5-1.2,16.8l4.7,2.6c10.9,4.1,20.3-2.4,28.5-8.2l2.1-1.5c11.5-7.9,20.9-17.9,29.7-27.3l1.5-1.8
			c-6.2,10.6-11.2,19.1-11.2,19.1l-8.5,17.9l-2.9,6.5c-10,22.3-13.5,42-15.6,59.7c-1.8,14.1-0.9,25,2.4,28.5l2.6,1.5
			c6.2,0.3,10-3.8,11.8-7.6l7.3-20.9l5.9-17.6c2.6-7.1,16.8-42.9,16.5-43.2c1.8-3.2,4.4-9.4,4.4-9.4l3.2-7.3l3.2-6.8
			c-2.4,17.3-5,47-3.2,70.2c-6.5,9.1-15.9,19.7-21.2,22.6c-3.8,2.1-5,2.9-4.4,4.4c0.3,1.2,2.1,1.2,3.2,0.9c0.3,0,23.8-4.7,23.8-4.7
			l0.3-0.3c2.4,24.1,5,36.4,6.8,42.6c6.2,21.2,22.9,65.8,43.5,83.2c10,8.2,15.9,11.2,18.8,8.8c5-3.5-1.5-19.1-9.4-36.1l-1.5-3.5
			c-7.6-17.3-10.3-26.2-13.5-38.8c7.9,2.4,27.9,7.1,35,8.5c0,0,47.3,7.1,51.1,7.6c-0.3,0.3-0.6,0.6-0.6,0.6l-10.6,9.1
			c-1.8,1.5-2.6,2.6-2.6,4.1c0,0.3,0,0.6,0.3,0.9c1.8,5,16.5,6.2,20.9,6.5c6.8,0.3,19.4-2.6,28.8-4.7c0,0,4.4-0.9,6.8-1.5L271,446
			c-0.6,2.1-0.9,3.5-0.9,5c0,4.4,2.6,6.8,5,9.4l0.9,0.9c-7.3-0.9-12-2.4-17.6-6.8l-1.5-0.9l-0.6,1.8c-1.2,3.8-1.8,6.5-1.8,9.1
			s0.6,5.6,1.8,9.4c-3.2-2.6-8.5-7.3-8.5-7.3c-8.5-7.9-17.3-16.2-22-17.3c-7.6-2.1-17.6-3.2-23.8-0.3l-1.8,0.9l1.5,1.2
			c5.9,4.7,11.8,13.2,15.3,21.5c6.5,15,21.5,25.6,32.6,27.3c-1.5,0.9-4.1,2.6-4.1,2.6l-0.9,0.9l1.5,0.9c2.6,1.8,15.9,9.4,32.9,5.6
			l3.5,5.3c0.3,0.6,0.9,1.8,1.2,2.9c0.3,1.5,0.3,2.9,0.3,4.1c0,3.2-0.9,6.8-2.1,9.4c0,0,0,0.3-0.3,1.2c-6.5-0.9-9.1-2.4-12.3-5.9
			l-2.1-2.1c-16.5-17-17-17-32.9-17c-3.2,0-6.8,0.6-7.1,2.9c0,0.3,0,0.3,0,0.6c0,2.1,2.9,3.5,3.8,4.1c8.5,4.7,14.1,14.1,18.5,21.5
			c0,0,3.5,5.3,4.7,7.1c-0.9,0.9-11.8,9.7-11.8,9.7h3.2l8.5-0.3l5.6-0.6l4.1-0.9c0.3,0,0.6,0.9,0.6,0.9c0.9,1.2,2.4,2.9,7.9,3.5
			l2.6,0.9l0.9,0.6l-0.9,0.6l-1.8,2.1l-2.4,2.1c-2.1,1.5-3.5,2.9-2.9,4.4c0.6,2.1,3.5,2.4,10.6,3.2l3.5,0.3c10,1.2,14.7,3.2,18.8,5
			s7.6,3.2,15.3,3.5c17,0.9,28.8-2.9,37.3-8.2c5,3.2,8.5,6.2,10.6,10.9c1.8,4.1,6.8,7.9,10.6,10.6c6.8,4.1,20.6,4.1,23.8,0.6
			l0.3-0.3c9.1-3.2,17.3-14.7,16.2-22.3c-1.2-7.3-4.4-12.6-7.1-16.8c-3.8-5.9-6.2-9.7-1.2-15.3c1.8-1.8,4.4-4.4,7.9-4.1
			c3.8,0.3,7.6,4.1,11.2,10c5.6,9.7,15.3,15.9,27.3,18.5c12.9,2.6,26.7,0.3,35.3-6.2c1.8-1.2,3.5-3.2,5.9-5.9
			c20.3,3.2,30.6-9.1,38.5-21.2c2.9-4.4,4.4-11.8,5.9-19.1l1.5-6.8l1.8-6.2l0.9-2.4c0.9-2.6,1.5-4.4,7.3-10.6l1.8-2.1l-2.9-0.3
			c-18.8-2.1-26.2,9.4-33.2,29.1c-4.1,11.5-6.2,15.6-9.4,18.8c0.9-2.4,1.5-4.7,1.5-7.1c0.3-2.9,2.4-8.2,4.7-13.2l3.5-8.8l-1.2-0.3
			c-4.7-1.8-9.1-1.8-13.5,0c-8.2,3.5-13.5,12.3-15.3,16.8c-5,12.9-9.4,22.6-21.5,28.2c-3.2,1.5-3.2,2.9-2.9,3.8
			c0.3,1.2,2.1,1.5,4.4,0.9c3.5-0.9,14.7-11.2,18.2-19.4c6.5-14.7,11.8-24.1,20.6-25.9l4.7-0.6c0,0-0.3,1.5-3.5,5.6l-2.9,4.7
			l-2.6,6.5c-3.2,8.2-7.1,18.8-17,26.7c-7.1,5.6-15.3,8.2-24.1,7.1c-10.3-1.5-20.3-7.6-27-17.3c-4.7-6.8-10-10.9-15.6-11.2
			c-5.6-0.3-11.2,2.9-16.8,9.1c-5.9,6.5-1.5,14.7,2.6,22.3c2.6,5,5.6,10,5,14.1c-0.9,10-3.5,11.2-7.6,13.2l-2.4,1.2l0,0
			c-2.6,1.5-5,1.5-8.2-4.4c-2.1-3.5-2.6-6.5-2.1-9.1c1.2-4.4,5.9-7.3,9.4-9.4l1.8-0.9l0.9-0.6l-1.5-1.2c-4.7-2.9-10.3-0.3-13.5,1.2
			l-2.1,0.9c-2.9-2.6-4.4-11.8-2.4-17.6c0.6-1.8,0.9-3.2,1.2-4.1l0.9-1.2c4.4-4.7,6.5-8.8,6.2-12c-0.3-3.5-3.8-5.6-7.3-7.6l-2.9-2.1
			c-7.6-5.9-26.2,0.9-33.8,6.2l-5.6,4.1c-5.3,4.1-10.6,7.6-16.2,9.1c0-1.5,0.9-7.6,0.9-7.6l-0.6-5.3c18.5-18.8,41.4-24.4,55.8-13.8
			c0.3,0.3,0.6,0,0.6,0.3l2.1,3.2l2.1-0.9c-0.3-1.5-0.6-2.9-1.2-4.4c0,0,0-0.3-0.3-0.3c-3.5-10.9-13.8-27.9-44.4-28.2
			c-23.5-0.3-36.7,7.6-46.4,13.5l-7.6,4.4c-9.4,4.4-22.3,4.1-27.6,2.9c2.6-1.5,10.6-5.6,10.6-5.6l-3.8-0.3
			c-16.5-1.2-25.3-4.1-38.5-25.9l-4.4-10.3c0,0-2.1-4.7-2.9-7.1c9.7,0,17.6,7.6,25.9,15.6c6.2,6.2,12.6,12.3,19.7,15l2.6,0.9
			l-1.2-2.6c-2.6-6.2-4.1-12.3-4.1-18.2c0-0.6,0-1.5,0-2.1c17.3,9.7,30,5.9,49.1-0.3l9.1-2.9c5.9-1.8,19.7,0.6,27.3,2.9l5.6,1.8
			c8.2,2.6,15.6,5,17.6,6.5l0,0l1.2-2.1l0,0c-0.9-0.6-20-11.8-35.6-15c-0.3,0-0.9-0.3-1.2-0.3c-18.8-6.8-39.4-5.3-55.8,3.2
			c-1.2-1.8-2.1-3.8-2.1-6.5c0-2.9,0.9-6.2,2.6-9.4c1.2-2.1,6.5-1.8,10.9-1.2l10,0.6l-3.5-2.4c-6.8-4.7-22.3-3.2-29.7-1.5l-5.9,0.6
			l-9.4,1.5c-7.3,2.1-24.1-0.3-25.9-1.8c0.3-1.2,8.2-7.3,16.5-10c3.8-1.2,15-1.2,44.7,5.6l0.9-2.1c-4.7-2.9-24.1-9.7-38.8-10
			c-12.6-0.3-59.1-7.1-69.1-8.8c-11.8-2.1-31.2-7.1-36.1-9.7v-0.3c0.6,0,26.7-7.9,26.7-7.9l-1.5-1.5c-4.4-5.3-12.6-18.5-12.6-31.4
			c0-1.2,0-2.4,0.3-3.5l0.6-20.9l-0.3-2.9c-0.3-3.2-0.9-6.8-0.9-9.4c0-0.6,0-1.2,0.3-1.8c5.9,2.9,10.6,8.2,13.2,15
			c1.8,4.7,5,20.3,5.6,25.9c1.2,11.2,10,25.9,15.3,27.6l1.8,0.6l0.3-1.8l-1.2-4.4l-2.1-5.9l1.2-2.9c0.6-1.5,2.1-4.7,3.5-6.8
			c3.2,6.2,10.9,15.3,14.4,18.2c2.6,2.4,16.8,10.3,24.4,10.3l0.3-2.4c-2.9-1.2-10.3-10.6-13.8-21.2c-2.1-5.9-4.1-22.3-4.1-30.9v-9.7
			c0,0,0.3-6.5,0.3-10.3c2.6,4.1,6.5,10.6,7.6,13.5l13.2,31.4c4.7,11.5,10.6,19.4,17.3,24.4c0.9,0.9,2.4,1.8,3.5,2.4c0,0,0,0,0.3,0
			l0,0l3.2,1.2l-1.8-2.9l0,0l0,0c-4.1-6.8-6.8-11.2-6.8-17.9c0-4.4,1.2-10.3,3.5-18.5c0-0.3,0.3-0.3,0.3-0.6V354c0-0.3,0-0.3,0-0.6
			s0-0.6,0.3-0.9c1.2-4.4,1.8-9.1,1.8-13.5c0-4.1-0.3-7.3-0.9-9.4c6.5,4.1,10.9,13.5,12.6,17.6c4.4,11.5,5.3,24.4,5.3,33.5
			c0,2.4,0,4.4,0,6.2c0,0.3,0,0.3,0,0.6c0,8.8,4.4,15.3,13.8,20.3l0,0c0.3,0,0.3,0.3,0.3,0.3l1.5-1.8l-0.9-1.2
			c-6.5-7.3-8.5-9.7-7.9-15.3c0.3-3.5,1.8-6.2,3.5-8.2c3.5,16.5,6.8,27.3,21.7,36.7c9.1,5.6,20,8.8,29.4,11.5l18.5,6.8
			c11.2,6.2,15.9,10.9,19.4,14.7l4.4,4.4l-0.6-3.5c-2.1-12-9.1-22-20.3-28.8l-12.3-7.1c-15-8.2-27.6-15.3-33.8-30.3l-6.5-18.5
			L298,356c-6.5-8.5-14.4-24.4-16.2-30.3c-0.9-3.8-1.5-7.1-1.5-9.7c0-0.3,0-0.3,0-0.6l0.3,0.6c2.6,4.1,5.9,9.4,10.3,12
			c2.4,1.5,14.7,9.1,19.7,17.6l4.4,6.2c1.5,2.1,2.4,2.9,2.4,3.8c0,0.3-0.3,0.9-0.6,1.5l-1.8,9.4l1.2,1.2c0.6,0.3,0.9,0.9,0.9,0.9
			l1.5-2.6c2.1-4.1,3.8-7.6,9.4-7.3l15.9,4.1l4.4,1.2c-1.2,4.4-1.8,8.2-1.8,11.8c0,11.8,5.9,19.4,10.9,26.2l2.6,3.5l4.4,5.9
			c10.6,14.4,17.9,23.8,25.3,50.3c0,5.6-0.6,10.6-2.1,14.7c-9.1-14.1-18.5-22-25-26.4c-5.6-3.8-13.8-8.2-20-9.1c0,0,0,0-0.3,0l0,0
			h-0.3l-0.6,2.4c5.3,2.1,16.8,7.9,25.6,16.5c6.8,6.2,18.2,24.4,21.5,34.1l2.4-0.3l0.3-5.3l0.6-6.2l0.3-2.4
			c3.8-21.5,5.3-29.4-2.1-59.4l-2.9-21.2v-1.8c-0.3-7.1-0.3-15.3,1.5-22.3c0,0,0.6-3.5,1.8-7.9l3.5-4.4l9.4-11.8
			c0,0,7.6-9.4,10.6-12.9c2.4,5.9,6.5,22.9,6.5,27.9c0,0,0,4.1,0,4.7c0,10.9-0.6,12.9-11.8,40.9c-3.5,9.1-7.3,28.8-7.3,41.4
			c0,3.8,0.3,7.1,1.2,8.8l1.5,3.2l1.8-7.3c0.6-0.3,8.8-15.3,10-16.2c5.9-5.3,7.9-11.5,6.8-20.6c-0.6-5.3,0-11.5,1.5-17
			c2.6,5,5,12.6,3.5,20l-2.1,8.8l-1.5,4.1l-2.1,4.4l5.3-2.4c0,0,4.7-4.1,5.3-4.7c0,0,0.6-0.9,0.6-1.2l0.9-1.5l2.9-7.9
			c2.6-9.1,3.2-15,4.4-23.2c0.9-6.5,4.4-15,7.6-20.6c0.3,0.3,1.2,2.1,1.8,3.2l0.9,2.4c1.8,4.1,0,26.2-0.6,30l-0.9,3.5l5.9-6.5
			l5.6-6.8l2.9-4.4c1.5-3.5,2.4-6.5,2.4-9.7c0-4.4-1.2-9.4-3.5-17.3c-1.5-5.3-2.1-9.7-2.1-13.2c0-3.2,0.6-5.9,0.9-7.6
			c1.5,1.8,3.8,4.1,5.3,5.9c3.8,5,7.1,11.5,7.3,16.5v3.8l2.4-1.2c4.1-2.4,7.3-7.9,8.2-14.4v-9.4c0-2.1,0-4.1,0-6.5
			c0-7.6,0.3-15.9,2.1-18.8c2.9-4.7,4.1-5.3,6.8-5.3c-0.9,2.9-1.8,5.9-1.8,8.5c0,0.9,0.3,1.8,0.6,2.6v15.6v13.2l-0.9,11.8l1.8-0.9
			c0,0,18.2-10.9,18.5-10.9c0,0,1.2,1.2,1.8,2.1c-7.9,3.5-19.1,13.5-23.2,20.6l-6.5,10.9c-5.9,10-14.1,23.8-20.3,32.9l-2.6,2.6
			l-4.1,5.3c-1.8,2.1-2.6,2.9-2.1,4.1l0.3,0.6l0.3,0.3l1.8-0.3c5-1.8,9.1-4.1,12.3-7.6c11.2-11.8,16.2-20.6,20.6-28.8l3.5-6.5l5-7.3
			c4.7-6.8,15.3-15.6,22-19.4c-0.6,0.3,9.1,8.2,11.5,10c-9.7,14.1-21.5,25.6-30.3,30.6c-0.9-5.3-1.2-8.2-4.1-9.7l-1.5-0.9l-0.6,1.2
			c-16.8,27.9-21.5,30.9-29.7,36.4l-8.2,5.9c-1.5,0.9-2.1,2.1-1.8,2.9v0.6v0.3l0.6,0.3c0.9,0.3,2.1,0,3.2-0.9l2.6-1.8
			c5.6-3.8,17.3-12,20.6-17.3l3.5-5l4.1-5.3c0,0,2.6-3.2,4.4-5.9c0,0.3,0.3,2.4,0.3,4.1c0,1.8-0.6,2.6-0.6,2.6l-1.2,2.1
			c-1.5,2.6-2.9,4.4-2.9,6.8c0,0.3,0,1.5,0.3,2.1l0.6,1.8l1.2-1.5c5.6-7.6,14.7-14.1,20-17.6l2.6-1.8c3.8-2.9,24.4-21.7,28.8-42.3
			l0.6-2.4c3.2-15.3,7.1-32.6,13.5-36.4c0,0.9,0.3,2.6,0.3,2.6l0.6,13.2l-0.6,12.3c-1.8,18.2-17,39.7-21.2,44.4l1.5,1.8l13.2-6.8
			l24.7-11.2c9.1-5.6,16.5-11.8,20.6-17.6c4.4-5.9,7.3-12.3,9.1-19.1h0.3V351c1.8-6.8,2.6-13.2,2.6-18.8c2.9,4.1,5.9,9.7,5.9,11.5
			h2.4c0.3-10.3,6.2-17.3,11.2-21.5c5.3-4.7,11.5-7.3,16.2-8.5c-3.5,5.3-5.6,12.3-5.9,16.8c-0.9,7.6-4.1,20.9-11.2,32.6l-1.5,2.4
			l7.1-2.1c4.1-1.2,8.5-2.4,11.2-1.8c-20,24.4-35.6,32-42.9,35.6c-10,4.7-18.5,5.9-27,6.8l-9.4,1.5c-14.4,2.6-27.6,8.2-42.6,18.5
			c-0.6,0.3-4.7,3.2-4.7,3.2l-2.9,2.1c-5.9,4.4-14.4,12.3-14.4,12.3c-8.2,7.3-14.1,12.6-25,16.2c-5,1.5-14.1,6.5-18.8,11.5
			c0,0,0.3,0.3,0.9,0.9c0,0.6,0,1.2,0,1.2l22.3-1.5c0,0,13.5-1.2,15.9-1.5c-0.3,2.4-2.4,5.9-4.1,7.9c-10.9,2.9-29.4,6.5-34.1,6.8
			l-15,0.9c-13.8,0.6-25,0.9-34.7,12l1.5,1.8c12-5.6,25.9-8.8,36.4-8.5c10.3,0.3,50.3-7.9,55.8-11.8l12.6-10.3
			c7.9-7.3,15.9-14.7,27.6-15.6c-4.7,7.3-17,23.2-26.2,29.7l-9.1,6.2l0,0c-12,7.6-25,13.5-40.3,7.6l-1.2,2.1c0,0,9.4,5.6,9.7,5.9
			l-8.8,0.6l-6.8-0.9c-10.9-2.1-24.1-4.7-33.5-2.1c-5.6,1.5-16.8,7.6-17.9,12.6l-0.6,2.6l5.9-3.2c2.9-2.1,5.6-3.8,13.8,0.9
			c12.9,7.3,19.7,16.2,24.1,21.7c2.6,3.2,4.4,5.3,6.5,6.2c-0.6,0.3-4.7,2.9-4.7,2.9l-2.6,0.6v2.4c7.6,1.5,20.3-1.2,23.2-12l0.3-1.5
			l-5,0.3c-7.6,0.6-9.1,0.9-13.8-5c-5-6.5-20.6-18.8-27.6-22.3c7.1-1.5,15,0.9,22.6,3.2c7.9,2.4,16.2,5.3,23.5,3.2
			c7.9-2.1,14.7-5,17.3-7.1l1.5-1.8c0,0-3.8-1.5-5.3-2.4c1.5-0.6,2.9-0.9,2.9-0.9c7.6-2.9,22.3-8.5,30.9-13.5l3.5-2.1l2.1-2.1
			l13.5-14.4l26.2-27.9H564c-14.1,0.3-28.8,5-38.8,12c-13.8,9.7-19.1,14.7-25,20.6c2.1-5,2.6-8.8,2.4-11.2
			c-0.9-0.9-13.2,1.5-13.2,1.5s-4.4,0.6-8.5,1.2c13.5-7.3,23.5-15.6,33.8-24.4l5.6-5c0,0,6.5-4.7,10.3-7.6
			c14.7-9.4,33.5-15.6,50.8-16.8c12-0.9,20.6-4.1,24.4-5.9c12.3-5.6,20-11.2,25.6-16.2c-3.8,27.6-18.8,60-28.2,79.9l-5.6,12.3
			c-0.6,1.2,0.3,2.9,2.1,4.4c1.2,1.2,4.7,3.2,10,0c32.9-19.7,56.1-69.4,62.9-129.6c1.5,0,2.9-0.6,4.1-1.8c3.2-3.5,3.5-11.8-2.4-19.4
			c0.3-4.4,0.3-8.8,0.3-13.2c2.1-0.3,2.9-1.2,3.5-2.1c2.1-3.2,1.2-9.4-3.8-15c0-2.1,0-4.1-0.3-6.2c-2.1-34.7-5.9-57.3-12.3-79.3
			c19.7,47,27.3,99.6,32.6,143.7l0.6,4.4c0.6,3.8,1.5,5.6,2.9,6.2c1.8,0.6,3.8-0.9,5-2.4c14.7-14.7,17.6-36.7,17.3-52.9
			c0-17.6-3.8-33.8-8.5-45c4.1,2.1,7.6,3.5,10.6,3.2c8.2-0.3,12.6-1.8,13.8-4.7c0.3-0.6,0.6-1.2,0.6-2.1c0-1.2-0.6-2.6-1.5-4.1
			c-3.8-5.9-39.1-63.2-55-90.5C692.4,188.5,708.3,204.1,722.1,206.7 M92.9,347.5c-1.8,0.9-2.9,1.2-2.9,1.2c2.1-1.2,7.3-3.8,10-5.3
			c0,0.3,0,0.6,0,0.9C98.2,344.9,94.9,346.6,92.9,347.5 M501.7,541.2c8.5-5.9,21.2-15.3,25-37c0.9-4.7,3.8-6.2,6.8-7.6
			c0,0.3,0,0.3,0,0.6c0,8.5-3.5,31.7-15,42.6c-7.3,7.1-14.4,7.1-20,5.9C499.9,544.1,500.8,542.7,501.7,541.2 M276.3,551.2l-5.9-1.5
			c0,0-0.9-0.3-1.5-0.6l0.6-0.3l2.9-1.5l-7.1-1.5c-0.6,0-5.6,0.6-9.4,1.2c1.8-1.5,4.4-3.8,4.4-3.8l-0.9-0.9l-6.8-10.3
			c-3.2-5.6-7.1-12-14.7-19.1c0,0-0.9-0.9-1.5-1.5c0.9,0.6,3.8,1.2,12.3,5c4.7,2.1,7.9,5.3,11.5,9.1c5,5.3,10.6,10.9,20.6,12.6
			c-0.3,1.5,0.3,7.1,0.3,7.1l2.4,6.5l0.9,1.5c-0.3,0-1.5,0.9-2.4,1.2c-0.3-0.3-2.1-1.8-2.4-1.8L276.3,551.2z M377.9,574.7
			c1.8-1.8,3.8-4.1,6.8-5.9c-1.2,1.8-2.4,4.1-2.4,7.3c0,2.9,0.9,6.5,3.2,10.6c1.2,1.8,2.4,2.9,3.8,4.1c-3.8,0.3-9.4-0.6-11.5-2.1
			c-4.1-2.9-8.2-5.9-9.7-9.7c0,0-1.2-2.6-2.9-5.3c-1.5-2.1-3.8-4.1-3.8-4.1l-2.4-2.9c0.3-0.3,0.6-0.3,0.9-0.6
			c4.4,1.5,16.2,7.3,15.9,8.8l-0.3,1.2L377.9,574.7z M377.7,523.3c0.6,0.6,0.9,1.8,0.6,3.2c-0.3,1.2-1.2,2.9-2.4,4.4
			c-1.8-1.8-3.5-5.9-4.7-8.8C375.3,521.8,377.1,522.7,377.7,523.3 M374.1,550.9v5.3l0.9,8.2l0.3,4.1c-3.5-2.1-8.2-4.1-11.2-5.6
			C368,559.1,371.2,555,374.1,550.9 M325.9,546.5l4.1-2.4l9.1-6.8c5.3-4.7,11.5-10,23.2-13.5c1.2-0.3,2.1-0.6,3.2-0.9
			c2.6,2.4,5.3,9.1,5.9,14.4c-4.1,5-8.8,10-11.2,12c-5.6,5.6-21.2,15.3-33.5,8.2c-3.8-2.1-5-5-5-9.4c0-0.3,0-0.3,0-0.6
			C323.6,547.1,325.9,546.5,325.9,546.5 M375.3,503.3c-1.2-0.6-2.4-0.6-3.5-0.9l-3.2-3.8c-2.4-3.2-4.4-6.5-12.6-9.1l-5-1.5
			c-2.9-0.9-4.7-1.5-6.2-2.4C363,486.5,370.3,494.8,375.3,503.3 M336.5,485.6c2.6,3.5,9.1,6.8,14.4,7.3c4.4,0.6,10.3,4.4,13.2,7.9
			c-4.1,0-8.2,0.3-12.6,1.2l-7.1-2.4c-8.5-2.6-19.7-5.9-22.9-10.6C326.2,487.7,331.2,486.2,336.5,485.6 M307.1,496.8
			c2.6-1.5,5.3-2.9,7.9-4.4c5.6,5.3,14.4,8.5,25.3,12l2.4,0.9c-7.1,3.2-14.1,7.9-20.6,14.1c0-1.2-0.3-2.1-0.3-3.2
			c0-3.8,1.2-6.5,4.7-12l0.6-1.2l-1.2-0.6c-4.1-2.1-11.5,4.1-19.1,10.9c0,0-0.6,0.6-1.2,0.9c-0.9-0.9-12.9-10.3-12.9-10.3
			c-0.3-0.3-0.3-0.3-0.6-0.3L307.1,496.8z M285.1,507.7l0.9-0.6c0.9,0.6,2.1,1.2,3.8,1.5c6.8,1.2,11.5,12.9,13.5,17.9l1.8,4.1
			l1.2-2.6c0.9-1.8,6.5-9.4,9.4-11.5c0,1.8,0.3,4.1,0.3,4.1c0.3,2.4,0.6,4.7,0.6,7.6c0,2.4-0.3,5.3-0.9,8.2
			c-0.6,2.1-0.6,4.4-0.6,6.2c0,5,1.2,9.1,2.1,11.2c-0.3,0-0.3-0.3-0.3-0.3c-1.5-0.6-5-2.6-7.1-5.9c-1.5-2.4-2.1-2.9-2.9-2.6
			c-1.2,0.6-0.9,0.9,0.9,5.6c1.8,4.1,6.2,6.8,11.8,9.7l4.4,2.6c11.5,7.1,27.3,0.3,33.5-4.1c4.1-2.9,8.2-6.8,11.5-10
			c-6.8,9.7-19.4,17.6-26.2,19.7c-8.5,2.6-25.6,3.8-34.4-0.9c-8.8-4.4-16.5-7.3-26.4-6.8c0,0-1.8-0.3-2.1-0.3c0.6,0,2.4-1.8,2.4-1.8
			c2.9-2.1,6.5-2.9,10.9-2.6c0.9,0,2.6,0,2.9-1.2c0.6-1.2-0.6-2.4-2.6-4.1l-3.2-3.2c-3.5-3.8-1.2-15.6,0.3-21.7
			c1.2-5.6-2.6-14.1-5.3-19.1C284.5,508,284.8,508,285.1,507.7 M318.6,453c-3.8,1.2-9.1,2.9-9.1,2.9c-8.5,2.9-18.2,6.2-23.2,5.9
			c-2.4,0-4.7-0.3-6.5-0.3C291.5,451.9,307.7,451.6,318.6,453 M704.2,164.7l3.8,5.6c2.4,3.5,15.3,20.9,21.7,28.8
			c-21.7-15.3-44.1-50-48.5-59.4c-4.7-10-42-37-52.3-39.1h-0.3l-2.6-6.5l-4.7-10c9.4,3.5,26.4,16.2,30.3,20.6
			c8.2,9.4,15.9,16.8,26.7,25.3C686.8,137.4,697.7,154.7,704.2,164.7 M609.5,81c2.9,1.2,7.6,2.9,9.1,10.9c0.3,0.6,0.3,1.2,0.3,1.8
			c0,1.5-0.3,2.4-1.2,2.9c-1.2,0.9-2.9,0.3-5-0.9c-2.6-1.8-14.7-10.6-16.8-13.5l-2.9-5c0,0.3,5,0.6,5,0.6l1.5,0.3l7.1,2.1
			c0,0,0.6,0.3,1.2,0.3l0,0L609.5,81z M615.1,78.3c-1.5-1.2-2.9-2.4-2.9-2.4s-1.5-0.9-2.1-1.2c0-1.8,0.3-3.2,0.3-4.4
			c22,10.9,53.2,28.5,68.5,49.1l-5.6-4.1l-16.8-12.6C644.5,92.7,630.7,81.3,615.1,78.3 M667.1,85.1L667.1,85.1L667.1,85.1
			L667.1,85.1 M666.8,78.3c-7.6-0.9-22.9-7.1-25-12.3l-2.4,0.6l0,0l0,0c0,0,0,0,0,0.3c2.1,7.9,10.3,13.8,17.6,18.2
			c11.8,6.8,29.1,24.7,34.4,34.1c1.8,2.9,8.8,8.5,14.7,13.2c0,0,2.6,2.4,5,4.1c-15.3-2.6-17.6-4.1-21.7-8.2l-5.9-4.4
			C669.5,99.8,633,79.2,609.2,68l-1.2-2.1l-1.5-2.4l1.5-11.8c2.6,0.3,4.7,0.3,6.8-0.3C628,54.2,655.4,65.4,666.8,78.3 M599.5,96.8
			l0.6,3.2c0,0.3,0,0.6,0,0.9c0,1.8-0.9,3.5-2.4,4.4c-1.5,0.9-2.9,0.6-4.1-0.3l-6.2-8.2l-5.3-7.1v3.5c0,2.6,4.4,13.2,7.1,15
			c7.3,5.9,12.9,10.9,15.3,20.9c1.2,5,1.5,7.3,1.5,8.5c0,0.6,0,0.9-0.3,0.9l-4.4-2.4c-3.2-2.1-10.9-11.8-13.5-16.5
			c-2.1-3.8-7.1-22.3-7.9-26.4l-1.8-4.1l-6.5-7.3c-0.3-0.3-3.8-4.7-3.8-4.7l-2.4-1.8l-0.3,1.8c-0.6,12.3-5.6,16.5-11.8,18.8
			c-2.6-2.9-7.3-6.2-11.2-7.1l0,0l0,0c0,0-0.3,0-0.3-0.3l-0.6,2.1c1.5,0.9,6.8,9.7,9.1,15.9c1.8,4.4,2.1,7.3,1.2,9.1
			c-0.6,0.9-1.5,1.5-3.2,1.8c-1.8,0.3-6.5-3.5-7.1-5.3c-0.3-0.3-0.3-0.3-0.6-0.6l0,0c-0.3-0.6-0.9-1.5-1.5-1.2
			c-1.2,0.3-0.9,0.9-0.6,3.2c0,0.3,2.9,6.5,2.9,6.5l5.3,11.5c1.8,5.9,1.8,9.7,0.6,10.9c-0.6,0.9-1.8,1.2-3.8,0.9
			c-4.1-0.3-7.3-2.9-9.1-4.4l-2.6-2.1v2.4l1.5,6.8l1.2,4.4c0,2.1-0.3,4.7-1.8,6.2l-4.1,1.5c-2.4-0.3-4.7-2.6-6.2-4.4l-3.8-3.5
			l-0.3,2.6l-1.2,10.3c-0.6,3.2-2.9,9.7-4.4,10.6c0,0-1.5,0.6-6.2-4.7l-1.8-3.5l-4.1-7.3l-0.3,2.9l-0.6,3.2l-0.3,2.9l-4.4,11.2
			l-0.9,1.8l-4.4,5l-2.6,2.4c0,0-0.6,0.6-0.9,0.6c0.3,0,0.3-1.2,0.3-2.4v-1.8v-3.2c0-0.3,0-0.3,0-0.6c0-3.2,1.5-7.9,2.9-9.7l0.9-1.5
			l-1.8-0.3c-5.9-1.2-10,11.2-10.9,13.8c-1.2,3.5-3.2,6.5-5.3,7.6l-2.6,0.3c-0.9-0.6-1.5-6.8-1.5-8.8l-0.3-2.9l-0.9-2.4l-1.5,1.8
			l-0.9,1.8l-0.6,3.5l-0.9,4.1c-1.2,4.1-4.4,9.7-6.2,9.4c-3.2-0.3-4.7-4.7-5.9-8.5c-1.2-4.1,0.3-11.2,1.8-13.2l2.1-2.4l-2.9,0.3
			c-0.3,0-5,5.9-5.6,7.6l-2.6,8.5l-1.5,5c-0.6,1.5-2.6,2.4-4.4,2.6c-0.6-0.9-0.9-1.5-0.9-1.5c-4.4-5.9-9.1-12-10.9-17
			c2.6,1.2,9.1,4.1,9.1,4.1l-0.9-2.6l-1.8-4.1c-1.2-2.4-2.1-4.4-2.1-6.5v-0.3c1.2-5.9,6.8-6.5,17.9-7.1l8.5-0.6l0.6-4.4
			c0.9-7.3,1.8-13.2,10.9-19.4c4.4-2.9,4.7-8.2,5.3-13.8c1.8,2.1,2.6,5.6,2.6,9.4v0.9l2.4,0.3c0.9-3.8,7.3-11.8,15-16.8
			c-2.4,4.1-4.4,10-5.3,17.6c-1.5,11.8-5,13.2-10.3,15l-5.3,2.4c-5.3,2.9-11.5,6.8-11.5,10.6c0,0.3,0,0.6,0,0.9l0.3,1.8l5.6-4.1
			l10.3-6.8l12.9-4.1l13.5-4.1c9.7-4.7,14.7-12.6,15.9-25.9c0.3-3.2,2.4-5.3,4.7-7.6c3.2-3.2,6.5-6.8,4.1-13.5l-2.6-5l-8.5-10.6
			l-2.4-6.8l-1.2,3.8c-1.8,6.8-13.2,13.5-19.1,12.9l-5-0.9c-4.4-0.9-9.7-1.8-17-0.9c2.9-2.1,7.1-2.9,12.3-3.2l4.7-0.3
			c7.1-0.6,11.8-5.3,12-12c0,0,0-0.3,0.3-0.3l0,0c0-0.3,0.3-0.3,0.3-0.3l-2.4-0.3c-1.5,3.8-5.6,7.1-8.8,7.9c-2.6,0.9-5.6-1.5-7.6-5
			c6.2,0.6,10,0,12.3-2.4c2.9-2.9,2.9-8.8,1.8-17c-1.5-11.2,7.1-17.9,12.9-22.3l2.9-2.4c4.1-3.8,11.8-2.4,15.9,0
			c6.2-4.1,19.7-9.7,33.5-9.7c12.6,0,23.8,4.7,31.7,8.2l6.5,2.4l3.2,0.9h1.2l9.4,0.6c0,0,3.5,0,5.3,0c-0.6,1.8-2.1,3.8-8.8,4.7
			c-6.8,0.9-9.1,0.3-14.4-1.8l-2.6-0.9l2.1,4.4c0.9,2.1,1.8,3.2,3.5,4.4v0.9c-0.3,2.1-0.6,3.8-0.6,5.9c0,0.3,0,0.6,0.3,0.9
			c-2.1-1.8-4.1-3.5-5.9-5l-2.1-1.8c-0.6-0.3-1.2-0.3-1.8,0.3c-0.3,0.6-0.3,1.2,0.3,1.8l2.4,1.8c2.6,2.1,5.9,4.4,8.2,7.3
			c0.3,1.5,0.9,3.8,0.9,3.8s1.5,4.1,2.1,6.2c-2.1,0-6.2,0.3-6.2,0.3l-7.1,0.3l-5.3-4.7l-1.8-1.5l-2.1,0.6l2.4,4.4
			c2.1,3.5,5,8.5,5,13.2v0.3c-9.4-1.5-12.3-4.4-17.9-12.3l-1.8,0.6c0,0.3,0.3,0.9,0.3,0.9c2.1,7.9,10,13.8,13.5,15l5,2.1l2.9,2.1
			l2.9,2.4l0.6-2.1c0,0,0.3-1.2,0.6-2.4c0.3-1.2,0.6-2.4,0.9-2.6c0.6,0.6,1.5,1.2,1.5,1.2c3.8,3.8,10.3,10.3,16.2,13.2
			c3.5,3.5,7.9,9.7,9.7,14.4c2.1,5.3,0,15.9-1.8,18.8c0,0.3-0.3,0.3-0.3,0.3c-1.5,0-4.4-3.5-5.6-5.9l-1.2-2.9l-2.9-5.3l-1.5-1.8
			c0,0-1.2,2.6-0.9,4.1c-2.1-4.1-4.1-6.2-6.2-8.2c0,0-0.3-0.6-0.6-0.6c1.2,0.3,4.4,1.2,4.4,1.2l0.3-1.2c0.6-3.5-0.6-14.1-2.6-16.8
			l-1.2-1.8l-1.8-2.4l-2.6-1.8c0,0-3.2-2.4-3.5-1.8L599.5,96.8z M554.9,153.3c1.8-3.5,2.4-7.9,2.4-11.5c0-2.6-0.3-4.7-0.6-6.2
			l-1.2-3.8c0,0-0.6-1.8-0.9-3.2c0.3,0.6,0.9,1.2,0.9,1.2l3.5,5.3c27.9,69.1,55.5,110.5,74.9,135.8c0.6,4.7,0.9,9.1,1.5,13.2
			C614.8,263.8,568.7,192.6,554.9,153.3 M635.7,292.3c0,1.5,0.3,2.6,0.3,4.1c-24.7-20-56.1-68.8-72.9-110.2
			C580.7,222.6,608.9,267.3,635.7,292.3 M571.6,97.7c3.8,7.3,3.2,7.9,1.2,9.7l-0.9,0.9l0.9,0.9c1.8,1.8,4.7,6.8,4.1,12.9
			c-0.3,3.5-1.2,5.6-2.4,5.9c-0.9,0.3-2.9-0.9-4.7-4.1l-5.6-14.1c-2.1-4.1-3.8-6.2-5.3-7.3c1.2-0.9,2.4-1.8,2.4-1.8L566,98l0.6-0.3
			c0,0,0.3-0.3,0.3-0.6c0.6-0.9,2.4-3.2,2.4-3.2l3.5-3.8c0.3,0,1.8,1.2,3.5,6.5c0,0,0,0.6,0,0.9c-0.3-0.3-1.2-1.5-1.2-1.5l-1.8-0.3
			l-2.1,0.6L571.6,97.7z M560.5,133.3V130l-0.6-13.5h0.3c0.6,3.5,2.6,11.2,4.7,14.4l7.9,7.3l4.4,3.8c1.5,1.8,3.5,7.6,5,12.3l2.6,7.3
			l12.9,26.2l1.2,6.2l0.6,5.6c0.9,2.1,2.6,2.4,3.8,2.6l2.4,1.2l12,19.7l7.1,10.6l5,7.3c1.2,8.5,2.4,17,3.2,25.3
			C613.9,241.1,587.2,200.3,560.5,133.3 M597.5,158.8c1.2,3.8,2.4,11.2,2.4,15.9c0,0.6,0,0.9,0,1.2c-2.1-3.2-5.3-9.7-7.3-14.1
			l-4.4-8.2c-1.5-2.1-7.1-19.7-7.6-22.3v-0.3c0-0.6,0.6-1.2,0.9-1.8c0,0.6,0.6,2.9,0.6,2.9s2.4-1.8,3.2-2.4
			c1.2,1.8,8.8,11.2,8.8,11.2c0.9,0.9,2.6,0.9,3.8,1.5c-0.6,2.4-1.2,5.9-1.2,10C596.6,154.7,596.9,157.1,597.5,158.8 M612.8,201.8
			c-0.3-0.3-0.3-0.9-0.3-1.5c0-1.8,0.9-4.1,1.5-6.2c1.5,0.9,3.2,1.5,4.4,1.2c1.2-0.6,2.1-1.2,2.9-2.6c1.8,7.9,4.1,19.7,6.2,32.9
			C621.9,217.3,614.5,205.3,612.8,201.8 M613.1,135l1.8,2.9c0.6,7.6,1.8,10.6,3.2,14.1c0.3,0.6,1.8,2.9,1.8,2.9
			c1.2,2.1,2.4,4.1,2.4,6.5c0,0.6,0,0.9,0,1.5c0,0.6-0.3,2.6-0.9,4.7c-0.9,2.1-2.4,3.8-2.4,3.8l-0.6,1.5l-0.3,6.8l-0.9,4.7
			c0,0-0.6,2.4-1.2,2.9v-1.2l-1.5-4.7l-2.1-7.3l-1.5,4.4l-1.5,7.1l-0.9,2.6l-1.2,2.1c-1.5,2.4-2.1,2.4-2.1,2.4s0-1.2,0.6-2.9
			c0.9-2.4,1.2-7.1,1.2-12.9c0-1.5,0-3.2,0-5v-4.4l-0.9-6.8c-0.9-3.8-1.8-8.8-1.8-12.9c0-1.2,0-2.1,0.3-2.9c2.6,0.6,5.9,0.6,7.6,0.9
			h1.2v-1.2c0.3-1.2,0.3-2.4,0.3-3.5L613.1,135z M506.7,187.9c-0.6-1.5-0.9-3.5-0.9-5c0-1.2,0.3-1.8,0.3-2.1h1.2
			c1.5,0.6,3.8,3.5,5.6,7.9l0.9,2.4l2.1-4.4c1.2-2.4,2.4-5,3.5-7.3c17.3,47.9,56.1,110.8,82.3,139.3c0.6,3.8,0.9,8.5,0.9,13.2
			c-37.3-30.9-78.8-95.8-94.9-139.9l0,0L506.7,187.9z M524.3,175.3c0-0.3-0.9-2.1-1.8-3.8c0.3-0.9,0.6-2.1,0.6-2.6
			c0.3-4.4,0.9-4.7,2.6-5.3h0.3c0,0.9,0.3,2.1,0.3,3.2C526.4,170.3,525.5,173.5,524.3,175.3 M427,246.7c1.5,7.1,5,16.8,8.5,21.2
			l-1.8,4.4c-0.6,2.1-1.2,3.8-1.5,5.6c-2.1-1.2-5.3-2.9-5.3-2.9l-5.6-2.9c-0.9-0.6-1.2-0.6-1.8-0.6l-0.6-4.1l-1.2-5.3
			c-1.8-5-4.1-12-2.9-15.3l1.5-3.8l5.3-13.2c0.6-2.4,3.2-13.8,2.9-19.1c0,0.3,0.3,0.9,0.3,0.9c1.8,4.4,3.5,9.4,3.5,12.6v0.3
			l-0.9,4.4c-0.6,3.2-1.5,7.1-1.5,11.8C426.4,242.3,426.7,244.4,427,246.7 M432.3,237.6l0.9-12.3v-1.8c2.9,2.1,7.1,7.1,8.2,18.5
			c0,0.9,0.3,2.1,0.3,2.9c0,4.7-1.2,9.4-2.9,13.8C434.7,254.4,432.3,247.6,432.3,237.6 M440.5,274.6c0-0.3,0.3-0.6,0.6-1.2
			c1.2,1.8,1.8,3.8,1.8,7.1c0,1.2,0,2.6-0.3,4.1c-0.6,4.7-1.5,7.3-2.4,9.1l-0.9-2.9C437,283.5,438.8,279.3,440.5,274.6 M356.2,20.4
			c2.1-2.1,13.5-3.2,20.9-3.5c13.8-0.3,22,3.2,28.2,5.9l4.1,1.8l2.4,0.6l2.6,0.3l2.1-0.3l1.5-0.3l3.8-1.5c0,0,2.1-0.9,2.4-0.9
			c-0.3,0-0.6,1.5-0.6,1.5l-0.3,0.9l-1.8,0.9c-2.9,1.8-5.3,2.9-13.2,2.9l-13.5-3.2c-6.5-2.1-13.8-4.4-20.3-4.4l-6.5,0.9l-5.9,1.5
			c-5,1.5-8.5,2.4-10.9,0.3C353,23.1,355,21.9,356.2,20.4 M387.1,30.7l-0.3,1.5l-0.6,1.5l-0.9,1.2l-1.2,0.9l-1.5,0.9l-1.8,0.6
			l-1.5,0.3l-1.5,0.3h-2.1l2.4-0.3l2.1-0.6l1.8-1.2l1.2-1.5l0.9-1.5l0.3-1.5l0.3-1.2L387.1,30.7z M366.8,31.9l0.6,1.5l0.9,1.5
			l1.5,1.2l1.5,0.9l2.9,0.6l-3.5-0.6l-1.2-0.3L368,36l-0.6-0.3l-1.2-0.9l-1.2-1.2l-0.9-1.2l-0.6-1.5l-0.3-1.2l2.9-0.6v0.9
			L366.8,31.9z M370.6,31.6c-1.5,0-1.5-1.8-1.2-3.2c1.2,0,2.1,0,3.5,0.6C372.7,30.4,372.4,31.6,370.6,31.6 M348.3,78h-2.6
			c-2.9,0-10,2.1-17.3,4.4l-15.6,4.1c-9.7,0.3-15-3.5-18.2-8.5c6.2,3.8,12.9,3.2,24.4,0.3c10.9-2.6,13.5-2.9,22.9-2.4l17,1.2
			c0.3,0.3,0.3,0.3,0.9,0.9H348.3z M422.6,203.2c-1.8-4.1-6.2-9.7-7.3-11.5l0.6,4.1l1.5,5.6l1.8,10.6c0,6.2-3.2,19.4-5,22.6
			l-1.2,2.4c-0.9,2.1-2.1,4.7-2.9,4.7c0,0-1.2,0-3.2-3.8c-3.8-6.8-4.1-17.9-3.2-21.7l0.9-3.5l1.5-6.5l-1.8,0.3
			c-0.3,0-0.6,0.9-0.9,1.2l0,0l0,0c-2.1,1.5-3.5,4.7-4.1,11.8c-0.3,1.5-0.3,3.8-0.3,6.5c0,5.9,1.2,14.1,7.1,21.5l0,0
			c5.6,5.6,8.5,18.8,9.7,25.9c-0.3,0.3-0.6,0.6-0.6,0.6l0,0c0-0.3-1.2-2.4-1.2-2.4c-0.9-2.1-2.4-4.1-4.1-4.4
			c-2.1,1.2-0.9,2.6,0.3,5.3l1.8,6.5c0,2.4-2.9,8.5-5.6,10.3c-0.3,0.3-0.9,0.6-1.2,0.3c-2.6-1.2-7.3-12.6-8.2-16.8l-0.6-3.8v-4.7
			l-0.3-4.7l-1.5-0.3l-1.2,0.3l-0.6,0.6l-0.6,0.9l-0.3,3.5c0,0-0.3,2.4-0.3,3.5c-0.6-1.8-1.5-5-1.5-7.3l-0.3-1.5l-0.6-1.2l-1.5-0.3
			l-1.8,0.3l0.3,3.2v2.6l0.9,2.6c1.2,4.1,2.9,10,0.3,14.7c-0.6,1.5-1.5,2.1-2.4,2.1c-1.8,0-4.1-1.8-5.3-3.5
			c-1.8-2.6-2.1-10-2.4-14.4c0-0.6,0-2.6,0-2.6c0-3.2,0-4.4-2.4-5.9l-1.8-0.9c0,0-0.3,2.6,0,5.3c0,2.6,0.6,5.6,0.6,5.6
			c0,3.5-5,8.2-7.9,10.3c-1.5-2.1-3.2-6.8-3.2-10.9c0-0.6,0-0.9,0-1.2c0,0,0.3-6.5,0.3-9.4l0.3-5l1.2-4.7c0.9-2.4,4.1-9.4,7.1-9.4
			c0.6,0,0.6,1.5,0.9,3.8l0.9,5.9c0,0,0.6,2.9,1.5,5.6l0.9,2.4l0.9,1.8c1.8,3.5,3.2,5.3,5,5c1.5,0,2.9-1.5,5.3-5l1.5-2.1l3.8-6.2
			c1.8-4.1,4.4-9.4,4.4-9.4c1.8-4.7,3.2-22.3,0.6-26.2l-1.8-2.9l-2.1-2.6l-4.1-2.4l0.9,2.6l0.9,3.2l1.5,5.6
			c1.5,3.8-0.9,18.8-2.6,21.7l-1.5,2.9c-1.8,3.5-5.6,11.5-8.2,11.2c-1.2,0-1.8-3.5-2.1-6.2c0-0.9,0-6.2,0-6.2
			c0.3-5.9,0.6-14.7-1.5-19.7l-1.5-3.5l-2.4-4.4l-3.2-2.4v1.8v2.6v6.8c-0.3,7.3-2.4,10-5.6,13.8l-3.5,5c-1.5,2.1-2.4,2.6-2.9,2.6
			c-0.9,0-2.1-2.9-2.4-4.1c-0.9-2.6-1.5-15-0.9-18.8c0.3-0.9,0.6-3.2-0.9-3.5l0.9-10.6c0,0,10.6-7.9,12.6-9.7
			c3.2,7.1,6.2,10.9,9.7,10.6c7.1-0.6,12.3-11.5,13.8-16.8c3.5,4.4,5.3,9.1,5.6,15v1.8l1.5-0.6c4.4-2.1,10.6-9.7,11.5-13.8l1.5-10.9
			l-0.6-5.9l-0.6-6.2c0-1.8,1.2-5.3,3.8-10c6.2-10.9,6.8-32.9,6.5-36.4v-1.8l-1.5,0.9c-2.4,1.2-2.9,1.2-3.5,0.6l-2.1-1.8l0.3,2.6
			c0.3,2.4,0.3,5,0.3,8.2c0,9.4-0.9,20.3-3.8,25.6l-1.8,2.6c-2.4,3.8-3.5,6.2-3.5,14.7c0,2.6,0,5.9,0.3,10c0,0.3,0,0.6,0,0.9
			c0,5-2.4,10.9-4.7,13.2c-2.1-5-2.9-8.5-7.9-14.4c-0.3-0.3-0.3-0.3-0.3-0.3c0.3-4.7,0.3-10.3,0-12.3l-0.3-1.2l-1.5,0.3l-3.2,0.9
			v1.2c1.5,7.9-0.9,22.3-5.9,27.9c-1.5,1.5-2.9,2.1-4.4,2.1c-1.8-0.3-3.5-3.8-4.4-10V185l1.2-9.7l-1.8,0.9
			c-3.8,2.1-8.5,11.2-9.1,14.7c-0.3,2.6-5.6,8.5-7.9,9.7c-0.6-4.1-1.2-7.1-1.2-9.4c0.3-1.2,0.6-2.4,0.6-3.5v-0.3
			c0.3-0.9,0.3-1.8,0.9-2.6c2.6-6.5,6.2-12.3,10.6-15.9c0.3-0.6,0.6-1.2,0-1.8c-0.3-0.6-1.2-0.6-1.8,0c-4.4,4.1-8.2,10-10.9,16.8
			c-0.6,1.2-0.9,2.6-1.2,3.8c-3.2,4.1-9.7,10.6-14.4,10.9h-1.8c-7.3-1.8,5-18.2,7.9-19.7c7.6-4.1,10.9-6.5,13.5-13.5
			c0-0.3,0.3-0.3,0.3-0.3l-1.8-1.2l-7.1,4.7c-3.2,1.8-6.8,4.4-10.3,7.3c1.5-6.5,5-14.4,11.8-19.1c5.9-4.1,11.8-6.8,25.6-6.8v-2.4
			c-11.5-0.6-12.6-2.9-12.9-4.7c5.6-0.9,17.3-9.1,20.9-12.3c4.4-1.2,7.6-4.1,9.4-7.9c1.2-2.4,1.8-5,1.8-7.6c0-2.9-0.6-6.5-1.8-10
			l-0.9-2.6l-1.2,2.6c-0.6,0.9-0.9,1.5-3.5,0.9l-2.4-0.6l1.2,2.1c1.2,2.4,1.5,4.1,1.5,5.6c0,2.1-0.6,3.5-1.5,5.3
			c0,0-0.3,0.6-0.3,0.9c-0.3-1.2-0.9-2.1-0.9-2.1l-1.2-4.1l-2.4,0.3c0,3.8-1.5,7.6-4.1,11.2l-4.4,0.9c-0.3,0-0.3,0.3-0.3,0.3
			c0-0.3-0.3-0.3-0.3-0.6c0-0.9,0.6-2.1,0.9-2.6l1.8-6.2c-0.3-3.5-1.2-11.5-8.2-12l-7.1,1.2c-2.9,0.9-6.2,1.5-8.8,0.3
			c2.9-1.8,12.9-7.9,12.9-7.9c2.1-1.5,5.6-2.9,15-2.6c5.9,0.3,15.3,6.5,17.3,10.3l0.9,0.9l0.9,0.3c2.1,0.3,1.5-2.4,1.5-2.4
			c-1.8-4.4-7.3-8.5-11.5-11.8c0,0-0.9-0.6-1.2-0.9c0.3,0.3,1.5,0.6,2.4,0.9c2.9,1.5,9.4,5.9,11.5,11.2c0.6,1.5,1.5,1.8,2.4,1.8
			c0.6,0,1.5-0.6,1.2-2.6c-0.9-4.1-5.9-10.3-13.5-13.8l-4.7-1.5l-5.9-2.9l-4.4-4.1l-10.9-9.1l-0.6-0.3l0,0l-9.1-4.7l-6.8-3.5
			c-3.8-5.9-6.8-10.3-13.5-10c-10.6,0.3-13.5,5.6-15.3,9.7c-1.2-0.6-5.6-5-5.3-9.4c0.6-7.9,10-16.2,16.2-17.9
			c1.2-0.3,3.2-0.9,4.4,0.3l-2.6,4.4l-7.1,3.2l-1.5,0.6c-2.4,0.9-2.1,2.1-1.8,2.4c0.3,0.9,1.8,1.5,2.9,1.2l5.3-1.5
			c0,0,0.6-0.3,0.9-0.3c-0.6,0.3-1.5,0.9-1.8,1.2c0,0.3,0,0.6,0,0.9c0,1.2,0.9,2.6,1.8,3.2c1.2,0.9,3.5,2.1,5.3,1.2
			c0.6-0.3,1.5-1.2,1.2-3.2c0-0.6,0-1.2,0.6-1.5c0.6-0.9,2.4-1.5,4.4-1.5l4.4,5c5,4.4,10.6,8.2,16.5,9.1l4.1,0.3
			c6.5,0.6,18.2,1.5,22.3,3.8l6.2,3.5l4.1,2.6l0.6,0.3c0.9,0.6,2.6-1.2,2.1-1.8l-0.6-1.2l-5.6-3.5l-5-3.2
			c-3.2-2.6-11.8-3.5-18.5-4.4l-7.1-1.2c-3.8-1.2-15.9-8.2-18.8-12.6l-1.5-2.4c-2.4-3.2-6.2-8.8-5.3-11.5c0.3-0.6,1.2-1.2,2.6-1.5
			c1.2,0,1.8-0.3,2.6-0.6c3.5,3.5,10.6,6.5,13.8,6.5c2.6,4.4,5.3,7.6,8.5,8.5c10,3.5,12.3,2.4,19.4-0.9l2.6-1.2l3.5-2.9l2.1-1.8
			l8.8-0.3h2.9c7.9,0,12.9-1.5,16.8-2.9c0,0.6-0.3,1.2-0.3,1.8c0,0.9,0.3,1.8,0.9,2.4c0.9,0.9,2.1,1.5,4.1,1.2c3.5-0.3,8.2-5,10-8.5
			l1.8-3.2l1.2-2.6c0.6,1.5,1.2,3.2,1.2,5.6c0,7.1-3.2,12.6-8.8,15.3c-6.2,2.6-10.3,2.9-13.5,2.6l0.6,2.6c5,1.5,13.5,4.1,13.8,7.6
			c0,0-0.3,2.6-0.3,2.9c-0.9-0.3-2.4-0.9-2.4-0.9c-3.2-3.2-8.8-6.2-11.2-5c-0.3,0.6-0.3,0.9-0.3,1.5c0,1.8,1.8,2.4,3.5,3.2l4.1,2.4
			l9.1,8.8l3.8,2.6c0,0,0.9,0.6,1.8,1.2c-2.9,0-5.3-0.3-7.1-2.4l-1.5-1.2l-1.2,3.2L430,76l0.3,0.9c3.8,6.2,6.5,12.9,8.5,20l5,12.3
			c0,0,1.8,4.4,2.6,6.8c-4.4-3.2-8.8-10.3-9.4-12.6l-0.6-2.6c-1.8-6.8-3.5-12-6.5-14.1l-0.3-0.3c-0.3,0-0.3-0.6-0.6-0.6l-2.1-0.6
			l0.9,2.4l4.4,12.6l0.6,2.4l1.5,5.3c1.8,5.9,5.3,17,5.6,23.2c-2.1-4.1-4.7-10.6-6.2-15.6l-1.5-3.8l-2.4,0.6c0,0,0.6,11.5,1.2,16.8
			c-0.3-0.6-0.9-1.5-0.9-1.5l-1.5-2.4l-2.1,0.9l1.8,5.6l2.1,7.9l0.3,1.5c0.3,2.4,0.6,5.6,0.6,9.1c0,1.5-0.6,2.4-0.6,3.8
			c-1.8-4.1-3.2-7.3-5-9.1l-1.8,1.2c1.8,4.4,2.6,8.2,2.6,11.2c0,1.5-0.6,2.6-0.9,3.8l-2.6-5.9l-0.3,7.9c-1.5-0.9-5.6-3.2-5.6-3.2
			l2.4,7.9c-0.6,5,1.8,15,3.8,19.1l6.8,9.1c4.1,5,9.1,11.2,9.7,14.1l2.1,7.3c0.6,1.8,0.9,2.4,0,5.3c-0.9-0.9-1.5-1.8-2.4-2.4
			c-2.9-2.4-4.4-3.5-5.6-4.1l-2.1-4.7l-3.8-7.9l-2.4,0.3l-0.3,0.6v-1.2H422.6z M368,294.9l-1.8,2.1l-3.2,5l-3.2,9.4
			c-0.3,0.9-1.8,2.6-2.4,2.9c-0.3,0-0.3-0.3-0.6-0.6c-1.8-3.8-0.6-7.6,0.6-11.5l1.5-5l0.6-3.5l-2.6,2.6c-2.4,2.6-9.7,12-2.9,22.9
			c0.3,0.6,0.9,1.2,1.5,1.5c0.6,5.9-0.3,13.5-2.1,18.2c-2.4-2.9-4.7-6.8-5.3-13.2c-0.6-7.6,2.4-21.5,3.8-25s1.5-11.5-1.5-13.2
			l-1.8-1.2v4.7l-1.2,7.1c-1.5,2.1-6.5,5.6-9.7,5.3c-5.3-0.3-6.2-5-6.5-10.3c0-0.3,0-0.3,0-0.6c0-5.3,5.3-13.2,7.6-16.2
			c1.2,1.8,3.2,3.2,5.3,3.5c1.8,0.3,3.5,0,4.7-0.9c2.1-1.5,3.2-5.6,4.4-8.8l1.5-3.8l1.2-1.2l-0.3-1.8l-0.9-0.6
			c-0.9-0.3-2.4,0-3.2,1.2l-1.8,4.4l-1.5,4.1c-0.9,1.5-2.1,2.1-3.2,2.1c-0.9,0-1.8-1.2-2.1-2.6c-0.9-4.1-1.5-8.2,1.8-12
			c2.6-3.2,4.4-7.6,4.7-13.5v-1.2l-1.2-1.2c-1.5-0.3-2.4,2.1-2.6,2.9c-2.4,7.9-5.9,13.5-9.4,14.7l-2.4,0.9c-1.5,0.9-5,2.4-5.6,1.5
			c-1.5-1.8-0.9-8.8-0.6-12c0.6-6.2,3.2-11.2,5.9-16.2c2.6-4.7,5-9.4,4.7-14.1v-0.3c2.6-5,5.6-12.6,6.2-14.7c0-0.6-0.3-1.2-0.9-1.5
			c-0.6,0-1.2,0.3-1.5,0.9c-0.6,2.4-3.8,10.6-6.5,15l-4.7,1.5l-4.1,1.8l-2.4,0.9l-2.1,0.6c0,0-0.6-0.9,0.3-6.2
			c0.9-5.3,2.6-9.1,5-11.8l17.3-9.7l1.5-1.2c0.9-0.9,2.4-2.1,3.2-3.5c0.3,2.1,0.6,4.1,0.9,7.1l0.3,1.5l0.3,6.5l-0.9,6.5v1.8
			c-0.6,0.9-0.9,1.8-0.9,2.1c-0.6,1.8-0.9,4.4-0.9,7.3c0,3.5,0.3,7.6,0.6,10.6v2.1c0.6,6.5,4.7,10,9.1,11.2c0,0.6-0.6,2.4-0.9,3.8
			l0,0v0.9c0,0.9-0.3,1.5-0.3,1.5l0,0l-1.8,10.6c0.3,5.9,7.1,18.5,9.4,20.6l0.9,0.9l2.4-3.2c0,0,2.6-3.5,4.1-5.6
			c0.6,2.6,1.8,8.2,1.8,8.2c0,2.1,0.6,5.9,1.8,7.9l-6.2,14.7l-2.4,5.3l-1.8-5.3l1.8-7.9l1.2-5.9L368,294.9z M357.7,320.8
			c1.5-0.3,2.9-1.2,4.1-2.4c0.6,1.5,1.2,4.7,1.5,7.3l-2.6,6.5c-1.2,2.9-2.4,5.6-3.2,8.5c-0.9,0.3-1.5,0.3-2.1,0
			C357.4,335.2,358.6,326.9,357.7,320.8 M339.2,318.1c-0.6,1.8-1.2,3.8-1.8,6.2l-2.4-6.8l-0.3-0.9c0.6-2.1,2.1-4.1,3.2-4.4
			c0.3,0,0.3,0,0.6,0C339.2,313.1,339.2,315.5,339.2,318.1 M330.6,277c-1.5,1.5-3.5,4.7-5,7.9c0.6-3.2,0.9-6.5,0.9-8.8
			c3.5,1.2,5.9-1.8,7.6-4.1c0.9-1.2,2.1-2.9,2.6-2.6C336.5,269.6,333.6,274.1,330.6,277 M348,246.1L348,246.1c0-0.3,0.3-0.6,0.3-0.6
			C348,245.8,348,246.1,348,246.1 M323,270.5c-0.3,2.1-0.6,4.7-0.9,7.6c-4.1-7.3-10-19.1-2.9-38.8c0-0.3,0.3-0.6,0.3-0.9
			c0.3-0.3,0.3-0.9,0.6-1.2c0.9-2.1,2.1-4.4,3.5-4.7c0.6-0.3,0.9,0,1.5,0.3c1.2,0.9-0.6,6.2-2.1,9.7l-2.6,11.5
			C321.2,261.4,321.8,266.7,323,270.5 M191.6,87.1l0.3-1.2c-0.3,0-0.3-0.3-0.6-0.6l-0.6-0.6c-0.6-0.3-1.5,0.9-1.5,0.9l-4.1,4.1
			c-1.5,4.7-5,7.6-8.2,9.1c-2.4,1.2-4.4,1.2-5.3,0.9c0,0-0.6,0-0.9-0.3c-0.3-0.3-0.3-0.9-0.3-0.9c-0.6-2.4,1.8-6.2,3.8-9.4l2.9-6.2
			l0.6-2.9l-2.4,2.1c-9.4,8.2-11.2,7.1-15.3,4.1c-0.6-0.6-0.9-0.9-0.9-1.8c0.3-3.8,7.3-10.3,8.2-10.9c4.7-2.4,10-3.5,12.3-2.6
			c2.1,0.9,1.8,2.6,1.2,5.6c-0.3,1.8-0.6,3.2,0.3,4.1l0.6,0.3h1.8c2.9-0.6,12.9-6.2,16.5-14.1l0.3-0.9l0,0l0.6-1.5l0.3-1.5l-0.3-6.2
			l-1.8,3.5l-2.6,4.4l-0.9,1.8c-2.9,3.5-5.3,5.6-6.8,5.9l-1.5-0.3c0,0-0.6-0.9,0.3-6.5l0,0l2.1-9.7l0.6-2.4l-2.1-0.9
			c-3.8,6.8-7.3,10.3-11.5,11.2l0.6-1.2c4.1-4.4,3.8-5.6,3.8-5.9c-1.5-0.9-2.6-1.2-7.1,3.8c0,0-0.9,1.2-2.1,2.4
			c0.9-2.9,3.5-9.7,5.9-12.3l-2.1-1.8l-3.8,2.4c-0.3,0.3-6.8,12.6-6.8,12.6l-0.6,1.8c-0.6,1.5-1.5,4.1-1.5,4.1
			c-1.2,4.4-10.3,8.5-13.2,8.8l-1.5,0.3h-3.2l-0.3-0.6c-0.6-3.8,4.1-8.8,7.3-12.3l1.2-1.2l0.3-0.3v-0.3l0.3-0.3l0,0l2.6-3.2
			c0,0,0,0,0-0.3c0-0.6-0.6-1.2-1.5-2.4c-1.8-2.1-4.7-5-4.7-9.1c0-1.5,0.6-2.9,1.5-4.7c4.7,1.8,20.3,3.8,30.3,0.3l17-7.3l8.8-3.5
			c4.1-0.6,11.8-1.5,17.3,0.9c5,2.1,7.1,3.5,9.1,6.5l-2.9-0.6h-2.9l2.1,2.1l2.1,1.8c2.9,2.4,7.1,6.2,8.2,10.3l-0.3-0.3
			c0,0-3.5-2.9-5-3.8l-0.9-0.3l0,0l-0.6-0.3l-3.5-0.6l2.1,2.4l1.5,1.5c2.6,2.9,6.8,7.6,7.3,12.3c-0.6-0.6-1.2-0.9-1.2-0.9l-0.9-0.6
			c-2.6-2.4-5-4.1-7.1-3.2L231,61l5.3,4.7l0.3,0.3c3.2,2.9,5,5.6,5.6,8.8c-1.8-0.9-3.8-2.1-3.8-2.1l-1.2-0.6l-1.8,1.8l1.8,2.4
			l3.2,2.9l2.9,3.8c0.3,2.9,2.9,9.1,5.9,10c0.3,0,5.9,2.1,9.1,3.2c-1.8,1.2-3.8,1.8-7.1,0.6l-3.5-4.4c-2.1-3.2-4.4-7.6-9.4-7.1
			l-2.4,0.3l2.1,2.6l2.1,1.8l4.4,5.6c0,0,1.5,4.1,2.4,6.5c0,0,2.4,5.6,3.5,7.9c-4.7-0.9-7.1-2.1-10.3-5.3c0,0-1.2-1.8-1.5-2.1
			l-2.6-6.2c-1.5-3.8-2.4-6.8-4.7-7.1l-1.5-0.3l0.3,1.5l0.6,3.5l0.6,9.1v0.3c0,3.5-2.9,6.8-5.6,10l-4.7,6.2
			c-2.1,5.6-2.4,13.2,1.5,17c5,5,3.2,9.1,1.8,13.2l-1.2,5.9c0,5,1.5,7.3,5.9,9.7c7.6,4.1,15,2.4,28.2-3.5c6.2-2.6,22.3-4.7,33.2,6.2
			l1.8-1.5l-0.3-0.3c-3.8-6.2-7.3-8.5-10.3-10.3l-4.4-3.5c-3.2-4.1-5-8.8-5-13.5c0-3.8,1.8-7.6,3.8-11.8c1.2,3.5,3.2,7.6,6.2,11.5
			c0,0.3,7.6,7.6,12.3,8.2l2.4,0.3l-4.4-6.2c-2.6-3.5-3.8-5.3-3.8-7.6c0-0.9,0.3-2.1,0.6-3.5c0.3-0.9,1.5-4.4,2.4-7.1
			c1.5,2.6,2.4,5.3,2.9,8.5c1.2,7.3,4.7,11.5,10.3,13.2c14.1,4.1,22,19.4,23.5,32.6c0,1.2-0.3,2.4-0.3,3.2v3.2l-2.4,3.5
			c-2.4,4.1-6.5,10.9-8.5,9.7c-5.3-2.9-5.3-7.6-3.8-17.3c0.6-3.2,0-4.4-0.3-4.7l-0.6-0.3l-0.9,0.3c-1.5,0.6-2.1,4.1-2.1,4.7
			c-0.3,2.1-4.1,9.1-7.3,11.5l-1.5,0.6l-3.2-1.8c-1.5-2.1-0.6-6.5,0.3-10.3c0.3-1.8,0-3.5-0.9-4.4l-0.6-0.6l-0.9,0.3
			c-0.9,0.3-1.2,1.5-1.5,3.2c-0.9,8.5-8.2,12.9-10.3,12.6c-2.4-0.3-2.9-0.9-3.2-1.2c-0.9-1.5-0.3-4.4,1.8-9.4c0.9-2.4,0.6-4.4-0.9-5
			c-1.2-0.6-2.9,0-4.1,2.9c-5.6,12-9.4,16.2-10.3,16.2c-0.3,0-0.9-0.6-1.2-2.1c-1.2-3.8-0.6-10.3,0.3-11.5c2.4-2.9,3.5-5.6,2.9-7.1
			l-0.3-0.6l-1.2-0.3c-0.6,0-1.8,0.3-3.8,3.5l-0.9,1.8c-2.1,3.8-7.1,12.6-12.3,12c-1.2-0.3-1.8-0.9-1.8-1.2
			c-1.2-2.4,1.5-7.9,2.9-10.3c0.9-1.5,1.5-3.5,0.9-4.7l-0.3-0.6l-0.9-0.3c-1.2,0-2.1,1.2-2.6,2.1c-2.6,3.8-11.5,10.9-15,10.3
			c-1.2-0.3-2.6-0.6-2.9-1.8c-0.6-1.8,2.4-5.9,5.6-8.8c1.5-1.5,2.4-2.9,2.1-4.1l-0.6-1.5l-0.9-0.6c-0.9-0.3-2.4,0.3-3.8,2.1
			c-5,5.3-10.3,7.3-17.6,7.6c0-4.1,2.4-13.8,4.7-17.3c0.9-1.5,1.8-2.6,1.8-3.5c0-0.3-0.3-0.6-0.6-0.9c-0.9-0.9-2.4,0-4.4,1.8
			l-1.8,2.1c-0.9,1.8-1.8,2.9-8.5,2.6l-1.2-0.9c-1.2-1.5-2.1-5.3-1.5-9.1l0.9-2.9l2.9-6.8c3.8-8.2,6.5-14.4,6.2-17v-0.9l-1.5-0.9
			c-2.1,0-4.4,4.1-4.7,6.2c-0.3,1.5-7.3,6.8-10.6,7.3c-0.3-2.4-0.6-5.9-0.6-9.1c0-2.4,0-4.4,0.6-6.2c1.5-6.8,7.6-11.8,12.3-15.3
			l2.6-2.1c0.6-0.6,2.4-1.8,2.4-3.8c0-0.3,0-0.6,0-0.9l-0.3-1.8l-1.2,1.2l-11.5,9.7c1.8-4.1,4.4-11.8,5.3-18.5
			c0.9-8.2,6.2-25.3,8.8-25c2.6,0,3.2,1.5,3.5,4.4c1.2,7.6-5,15-7.1,17c-2.1,2.1-1.5,3.2-1.2,3.5c0.3,0.3,1.5,1.5,3.8-0.3
			c6.2-6.2,12-17.3,11.8-26.7c-0.3-5.3-1.2-8.2-3.2-9.7c-1.5-0.9-3.2-0.9-5.3,0c-8.8,3.5-17.9,22.6-18.2,38.2
			c-0.3,14.7-8.8,24.1-12.9,27c-1.8,1.2-5.3,3.5-6.5,2.9c-1.2-0.3-1.5-1.2-1.5-2.4c0-1.8,0.6-3.5,1.5-4.1l-0.9-2.1
			c-0.3,0-0.3,0.3-0.3,0.3l0,0l0,0c-3.2,1.2-3.5,3.2-3.8,5.3l-1.2,3.8l-1.8,2.1c-2.4,2.6-5,5.6-7.9,6.5c-0.3-1.5-0.6-2.9-0.6-4.7
			c0-3.2,0.3-6.8,1.2-9.1l1.2-4.7l1.2-3.8l-1.2-0.6c-2.9-0.9-4.4,2.6-5.3,5.3c-1.5,3.2-5.9,10-9.1,11.5c-5.3,2.4-7.6,1.8-8.5,1.5
			l-1.5-1.8c-0.3-0.6,1.2-2.9,2.4-4.7c2.4-3.5,5.3-8.5,4.7-13.5v-0.3l-0.6-3.2l-1.8,2.9c-2.4,3.8-8.5,11.8-13.8,12.6l-3.8-0.9
			l-1.8-2.1l1.2-2.4c0.6-0.9,5.3-6.2,5.3-6.2c4.4-4.7,9.4-10,7.9-15.3l-0.6-2.1l-1.5,1.8c-10,13.2-13.8,15-23.5,14.7l-1.2-0.3v-4.7
			c0.6-5.3,4.4-9.4,7.3-12.6l2.9-3.5l-1.5-1.8c-7.9,6.8-27.3,12.6-37.6,7.6c0.9-0.3,2.1-0.9,2.1-0.9c15-3.2,29.7-8.5,46.7-16.5
			l2.9-1.8l4.1-2.4c-0.3,0-0.9,4.7-0.9,4.7l-2.4,7.9c-0.9,2.1-1.2,3.5-1.2,4.4c0,0.6,0,0.9,0.6,1.2l0.6,0.6l1.5-0.3l4.4-2.1
			c1.8-0.9,5-2.6,5.6-1.8c1.2,2.1,0.9,3.8,0,8.2c-0.9,3.5-1.2,4.7,0,5.6c0.9,0.9,2.1,0.3,4.4-1.2c0.3,0,3.2-2.1,3.2-2.1l2.9-1.5
			l5-0.3c0.3,0,0.3,0,0.6,0.3c0.6,1.2,0.3,4.1-1.5,7.1l-0.9,0.6l0.9,1.5l0.3,0.3c0.6,1.2,1.5,1.5,3.2,1.5l7.1-1.5l2.1-0.6
			c1.2-0.6,4.1-2.4,4.1-2.4c1.5-1.5,2.1-1.5,2.9-0.9c2.1,1.2,3.2,0.9,3.8,0.3c1.2-0.9,1.5-2.4,1.5-3.8c0-1.8-0.3-3.2-0.6-3.8
			c0-0.3-0.3-0.6-0.3-0.9s0-0.3,0.3-0.6l1.8-2.1L191.6,87.1z M305.4,202.6l-0.9-0.9l-1.8,1.2l-5.6,7.6c-1.5,2.6-4.4,4.1-6.5,5
			c0-0.3-0.3-3.5-0.3-3.5c0-3.8,3.2-6.5,6.5-8.8l3.8-3.5c0.3-0.3,0.3-0.6,0.3-0.9c2.1-0.6,4.1-1.8,5.6-3.2c0.3,0.9,1.5,3.8,2.4,6.2
			c-1.8,5.3-4.1,9.1-9.1,11.8c1.5-2.6,3.8-6.5,5-7.6c0.9-0.9,1.2-1.8,1.2-2.4C305.9,202.9,305.4,202.6,305.4,202.6 M283.9,197.6
			c3.5-1.5,6.8-2.9,8.2-3.8c0.3,0.3,0.3,0.9,0.3,0.9l1.5,2.1l-1.5,2.4c-2.4,2.1-5.9,4.1-8.2,4.1c-0.6,0-0.6,0-0.6,0l0.9-4.7
			C284.2,198.5,284.2,198.2,283.9,197.6C284.2,197.9,283.9,197.9,283.9,197.6 M272.4,201.5l1.2-0.3c0.9,0,2.4-0.6,3.8-0.9l-0.3,2.9
			c-0.3,0.6-0.3,1.2-0.3,1.8c-2.1,2.4-5.9,5.3-9.7,7.1l-4.4,0.6h-0.6l0,0c0.6-1.8,0.9-3.5,1.5-5.3c0.3-0.6,0.9-1.5,1.5-2.4l1.2-2.9
			l0.9-1.5l4.1-1.5l1.5,0.3c-0.3,0-0.3,0.6-0.3,0.6C272.4,200.3,272.4,201.5,272.4,201.5 M273.6,199.1L273.6,199.1L273.6,199.1
			L273.6,199.1z M257.2,204.1l2.1-0.9c-0.9,1.8-2.1,3.2-3.5,4.1c-2.4,1.2-5,2.4-8.8,2.9c0,0,0.3-0.3,0.3-0.6l0.9-1.5
			c1.8-2.4,3.2-7.3,3.8-10.3c2.4-1.8,4.7-3.8,6.2-5.6c0,0.6,0,1.2,0,1.5c0,3.2-0.9,5.9-2.4,7.9l-2.1,3.2L257.2,204.1z M240.7,192.6
			c0.6,2.4,0.6,6.2-1.2,9.1l-0.9,1.8h2.1c1.5,0,2.9-0.3,4.7-1.2c-1.5,2.9-4.1,6.5-5.6,7.3c-1.8,1.2-5.3,1.8-8.8,2.1
			c1.2-4.7,2.1-9.1,2.9-13.8l0.9-4.4c0,0,0-0.3,0-0.6c0.3,0,0.9-0.3,1.2-0.6c1.5-0.6,2.9-1.2,4.1-2.1
			C239.8,190.6,240.7,192.6,240.7,192.6 M223.4,188.5l-1.2,0.9l-5,4.4c0,0-2.1,0.6-3.5,1.2c0.3-1.5,0.9-3.2,0.9-3.2l1.2-4.1l1.8-0.6
			l4.4-2.1l1.5,0.3l0.3,3.2C223.4,188.5,223.4,188.5,223.4,188.5 M206.3,191.2l-2.4,12.3c-4.1,29.1-31.4,89-70.5,125.8
			c0-1.2-0.3-2.6-0.3-3.8c20.3-20,38.5-52.9,48.5-76.1c7.9-19.1,20.9-54.1,23.5-74.4c0.6-0.3,1.2-0.6,1.2-0.6s2.1-1.2,3.5-1.5v0.3
			c0,3.2-0.9,7.1-2.1,10.9L206.3,191.2z M150.8,349c0,3.2,0,5.6,0,5.6c0,1.2,0,2.4,0,3.2c-1.8,1.5-5.9,3.8-10.6,5.3
			c-1.5,0.6-2.9,0.6-3.8,0.9c-0.3-2.1-0.6-4.7-0.9-7.6C139.6,353.4,147,349.3,150.8,349 M134.6,347.2c0-1.5-0.3-2.9-0.3-4.4
			c4.7-2.9,12.3-8.8,16.5-12c0,1.5,0,3.2,0,5.6C147,340.2,138.7,346.1,134.6,347.2 M133.7,334L133.7,334c-0.3-0.6-0.3-1.2-0.3-1.8
			c6.2-5.6,11.8-11.8,17.3-18.2v8.5C146.1,326.9,139.9,331.1,133.7,334 M135.5,281.1c2.1-4.1,13.8-36.1,15.3-43.5l0.9-4.1
			c2.4-9.7,7.3-30.6,7.1-41.7l13.2-23.2c1.2-1.8,1.8-2.9,2.9-4.7c-2.4,29.4-16.5,95.5-42.6,128.4c0-2.4,0.3-4.4,0.3-6.8
			C134,284.3,134.9,282.6,135.5,281.1 M135.2,266.4l1.2-6.8c3.2-18.2,6.2-32,13.2-49.1l-2.4,12l-1.5,6.5
			C144.9,234.4,138.4,257,135.2,266.4 M177.8,160c5-7.9,8.2-14.1,8.5-17.3v-6.5c-0.3-4.4-0.3-7.3,2.1-11.8l0.3-0.3
			c0.9-0.6,1.8-1.5,2.6-2.1c-2.6,6.5-3.8,15.6-1.5,27.3c-0.9,59.1-30.3,129.6-57.6,157.2c0-3.5,0-7.1,0-10.6
			C161.4,261.7,176.3,187.1,177.8,160 M196,148.9c1.2-0.6,2.9-1.2,4.1-1.8c-0.3,1.2-0.6,3.2-0.6,4.7l0,0v1.2l0,0
			c0,0.9-0.3,1.2-0.3,1.2l0,0c-0.3,6.5-0.6,15,0,19.4c-2.9,18.5-15,53.8-23.8,74.9c-11.8,28.2-29.1,55.8-42.9,69.1
			c0-1.5,0-2.6,0-4.1C162.2,286.1,193.7,217.6,196,148.9 M100.5,145.3c-0.6-0.6,1.5-4.7,1.5-4.7l0.9-1.8l0.6-2.6l2.1-3.8l2.4-2.1
			c5.6-5.3,9.7-8.8,12.9-5.6l2.1,1.8c1.2,0.9,1.8,1.5,1.8,2.1c0,1.5-3.5,4.7-6.2,7.1l-1.8,1.2L100.5,145.3z M29.1,145.3
			c1.5-1.2,5.6-2.4,7.9-3.2l4.7-1.5l4.4-2.1l15-7.3l1.8-0.9l2.4-1.2l6.2-3.5c4.1-2.4,8.5-4.7,12.9-7.3c-0.3,0.9-0.6,1.5-0.6,1.5
			c-0.9,1.8-1.8,3.2-2.4,4.4C69.4,134.2,45.3,143,29.1,145.3C29.1,145,29.1,145.3,29.1,145.3 M78.2,140c-6.5,2.1-24.7,6.2-40.3,6.5
			h-1.5c-0.3,0-1.2,0-1.8,0c13.5-2.6,32-9.1,44.4-17.6c-0.6,1.8-1.2,4.1-1.2,4.7c0.9,0.9,14.4,0.3,14.4,0.3s1.5,0,2.6,0
			C89.9,135.9,81.1,139.2,78.2,140 M87.6,127.4c0.9,0,4.1-6.8,4.1-6.8l3.2-5l2.6-5c2.6-1.8,4.7-3.2,5.9-4.4c2.1-2.4,3.8-2.9,4.4-2.6
			c0.9,0.3,0.9,1.5,1.2,2.1l0.6,3.8l1.2,2.1l1.8,1.8c1.2,1.2,1.5,1.8,1.5,2.1c0,1.2-2.1,2.6-5.9,5l-6.5,4.1l-1.2,0.9
			C97.3,126.2,89.4,127.7,87.6,127.4 M15,201.2c0.3-0.9,0.9-1.5,1.8-1.8l17-6.5l0,0l0,0l27-14.1l37.6-25.6l4.4-1.8
			c0.9-0.3,2.1-0.6,3.2-1.2c-22.3,20-63.8,43.8-91.4,52.6C14.7,202.3,14.7,201.8,15,201.2 M73.8,191.5
			c-22.3,10.3-51.7,17.9-58.2,13.5c29.7-9.4,75.8-36.4,97-57.3l0,0c4.4-2.1,8.8-4.7,12.6-8.8l1.5-1.5l0,0c2.1-1.8,4.7-4.1,4.7-4.1
			c1.5-1.5,3.2-2.9,4.7-4.7c-1.2,3.5-2.1,6.5-1.8,8.5l0.3,0.9h2.6c-12,21.2-20,25.9-24.7,25.9l-0.9-0.3c-0.9-1.2-0.6-4.1-0.3-6.5
			l0.6-5.9l-2.1,1.5c-3.2,2.1-3.2,5.6-3.2,9.1c0,3.2,0,6.5-2.4,9.1l-13.5,10l-3.5,2.4C87.3,183.5,78.5,188.8,73.8,191.5 M29.1,255.2
			c16.2-12,40.3-35,47.9-44.4l12.3-13.5l6.2-6.8l0,0c2.1-2.1,4.4-4.7,4.4-4.7c7.1-7.9,13.8-15.3,16.2-16.8c0.9,0,1.8-0.3,2.6-0.6
			C87.9,212,47.9,249.7,20.3,267C20,263.8,22.9,259.9,29.1,255.2 M63.2,249.7c-0.6,0.3-2.6,2.4-2.6,2.4c-6.8,6.2-17,15.6-31.2,20
			c-2.4,0.6-6.5-0.3-8.2-2.6c28.8-17.9,70.5-57.6,102-103.2c1.2-0.9,2.4-1.8,3.2-2.9c0,4.4-0.9,8.8-3.8,14.1
			c-6.5,7.3-13.5,16.8-17,21.7l-6.2,9.4C90.2,222.3,77.3,236.7,63.2,249.7 M51.1,342.2c3.2-22,8.5-41.7,16.2-60l0,0
			c9.1-20.9,25.3-52.6,41.7-75.8c8.2-11.8,14.4-19.7,21.2-25.9c-22.3,32.6-67.3,105.8-79.1,181.9C50,361,49.4,354.9,51.1,342.2
			 M83.8,280.2l-8.2,22.9c-7.1,18.8-15.6,42-17,51.7c-0.6,2.9-1.8,5.6-3.5,6.8l-1.8,0.6C65,287,109.3,214.4,131.7,181.8
			c-5,9.7-11.2,22-16.2,32.6l-6.8,14.1L83.8,280.2 M161.9,473c1.2,2.9,2.1,5.9,2.1,6.8v0.3c-0.3-0.3-2.4-1.2-10-8.5
			c-20.3-18.8-35.6-63.8-39.7-79.6c-13.5-51.1-9.4-119.6-3.5-150.8l8.5-16.8C106.1,296.4,110.2,398.7,161.9,473 M156.9,461.3
			c-46.7-75.8-47.6-177.2-33.5-245.4l3.5-7.1l2.4-5.9c4.1-10,10.9-26.7,17.3-35c7.9-10.3,9.4-15.9,9.4-19.7c0-1.2,0-2.4-0.3-3.2
			l-0.3-2.1c0-0.3,0-0.9,0-1.2c0-1.2-0.3-2.4-1.2-2.6l-0.6-0.3h-1.5c-0.9,0.3-1.5,1.5-1.5,2.9s-0.9,9.1-4.4,14.7l-7.1,7.3l-8.5,5.9
			c-0.3,0.3-0.6,0.6-1.2,0.9c0-5.3,1.8-11.2,3.5-16.5c0,0,0,0,0-0.3c4.4-6.8,7.3-13.5,8.5-16.8l4.1-0.9c0,0,10.3-3.5,10.3-3.8
			c0,2.1,0.9,9.7,0.9,9.7l2.1-0.6l12.6-5.6l3.2-2.9l5.9-4.1c0.3,2.1-0.3,3.5-2.4,8.5c-0.3,5.3-2.1,10.9-2.9,11.5
			c0.6,0-1.2-7.6-1.2-7.6l-1.2-5.3l-1.5,2.6l-0.9,1.5l-0.6,1.8l0.6,4.4v3.5l-2.4,9.1c-0.3,0.3-10.3,19.4-10.3,19.4
			c-0.3,0.3-20,30.6-27.6,70.5c-3.5,19.7-5.3,39.1-5.3,59.4c0,15.9,1.2,32.3,3.5,49.7C134.9,407.2,147.5,439.2,156.9,461.3
			 M162.2,389.5c-0.6,0-7.9,1.8-12.3,2.9l-7.6,2.1l0,0l-4.4-23.2c7.6-4.4,11.8-5.9,13.8-6.2c0.3,1.2,0.6,2.4,0.9,3.5
			c-5.3,2.9-8.5,5.3-9.1,7.9l-0.3,1.2v1.5l0.6,1.5l0.9,1.8c2.6,3.8,13.5,2.9,15.9,2.6l0,0C160.2,386.3,162.2,389.5,162.2,389.5
			 M156.1,379.8c-5.6,0.6-7.1-0.3-7.3-0.9c0,0,0,0,0-0.3c0-1.2,3.5-3.5,5.3-4.4C154,374.6,155.2,377.8,156.1,379.8 M159.3,314.9
			c-2.1-1.2-4.4-1.8-7.3-1.5h-0.6c30.6-36.7,51.4-85.2,55-110.5h-0.6h0.3c4.4-1.2,12-3.2,19.1-5.9c-4.1,14.4-17.6,49.1-25.9,64.1
			C187.2,282.6,177.2,294.9,159.3,314.9 M167.5,321.4c-0.9-0.9-1.8-2.1-2.9-2.6c-0.3-0.3-0.3-0.3-0.6-0.6c7.3-8.2,28.8-32.9,40-54.7
			c4.7-9.4,11.8-23.8,17.6-38.8c-4.4,15-9.4,29.1-15,40.3C195.7,286.4,183.7,302.3,167.5,321.4 M171.3,326.4
			c17-19.1,26.7-32,40-59.1c9.7-19.4,14.7-35.3,18.2-50l9.4-0.9c-7.3,32.6-36.7,84.9-67.3,111.1
			C171.6,327.2,171.3,326.9,171.3,326.4 M172.8,329.6c32.3-27.3,61.4-80.8,68.5-113.7c3.8-0.6,10.3-1.8,15-3.5
			c-13.8,50.8-43.2,98.2-79.3,128.1C176,337.2,174.6,333.4,172.8,329.6 M179.6,353.1l-0.3-2.9c0-0.6-0.3-2.1-0.6-3.5
			c11.8-9.7,22.6-20.3,32.3-32c-0.6,2.4-0.9,6.2-1.2,10.6C203.7,332.8,189.9,347.2,179.6,353.1L179.6,353.1z M180.8,359
			c7.3-4.1,21.5-17.9,29.1-26.4v0.9c0,1.5,0,3.2,0,4.7c-7.9,7.9-19.4,17.6-28.2,24.1C181,361.3,180.8,360.2,180.8,359 M196.9,356.6
			l-0.9,0.6c-1.5,0.9-5,4.4-6.8,9.4c0,0-2.6,5-3.8,7.9c-1.5-2.4-2.4-5.9-3.2-9.4c8.5-6.2,19.7-15.3,27.9-23.5c0,2.4,0,4.4,0,6.8v5.9
			c-0.9,0.9-6.2,3.5-9.1,5c0,0-0.9,0.6-1.8,0.9C199,359.9,196.9,356.6,196.9,356.6 M200.4,366.9c0.3,0,0.6-0.3,0.6-0.3
			s7.6-4.4,9.4-5.3c1.5,4.1,3.8,15,4.1,20.6C210.1,380.1,202.5,370.2,200.4,366.9 M213.1,312.3L213.1,312.3
			c12.6-16.2,23.8-34.4,32.9-54.1c-8.2,23.2-19.1,47.6-29.1,57C215.4,314,214.3,313.1,213.1,312.3 M222.5,322.8
			c-0.9-1.2-1.8-2.4-2.4-3.5c18.5-20.3,38.2-76.4,41.7-101.1c2.4-0.3,5-1.2,7.6-2.4C266,236.7,241.3,300.2,222.5,322.8 M224,324.9
			c19.1-22.9,45.6-90.2,48.2-109.9c0-0.3,0-0.3-0.3-0.6c0.6-0.3,1.2-0.6,1.5-0.9l2.4-2.1c2.4-2.1,3.2-2.6,5.9-2.4
			c0.3,1.8-0.3,6.2-0.9,9.7l-0.3,1.8c-0.3,0.6-0.3,0.9-0.3,1.5c-2.9,26.2-27.6,92-51.4,112.6C228.7,333.7,226.9,329.6,224,324.9
			 M234.8,348.4l-3.8-8.8c11.5-11.2,22.3-29.1,31.2-47.9c-4.1,11.2-8.5,22.3-13.2,32c0,0,0,0-0.3,0h-3.2l2.4,1.8
			C243.6,334.6,239.2,342.5,234.8,348.4 M237.5,354.3c5.3-5.6,10.3-13.5,15-23.2c0.3,0.9,0.3,2.4,0.6,4.1c0,0.3,0,0.3,0,0.6
			c-3.2,4.7-10.6,14.7-15.3,19.7L237.5,354.3z M248.9,367.2l-0.6,2.1c-0.3,1.2-0.6,4.1-0.3,7.3l-2.9-4.1l-1.8-3.8l0.9-0.9
			c1.8-1.5,3.5-2.9,5.3-4.7C249.5,364.3,249.2,366,248.9,367.2 M252.2,351.6l-7.6,8.2l-3.5,2.9l-2.4-5c4.1-4.1,10.3-12.6,14.4-17.9
			C253,343.4,252.8,347.5,252.2,351.6 M260.1,326.4c-1.5-0.9-2.9-1.5-4.7-1.8c15-34.1,26.4-81.1,28.5-99.9l7.1-1.8l3.5-1.2
			c0.9,0.6,2.1,0.6,3.2,0.3C293,249.4,278.9,297.6,260.1,326.4 M274.5,345.5c-1.2-3.5-2.9-7.1-4.7-10l7.1-9.7l0.6-0.9
			c0.6,2.4,1.2,4.7,2.1,7.3c0.3,1.2,0.9,2.1,1.5,3.2c-0.6,0.9-0.9,1.8-0.9,1.8L274.5,345.5z M317.1,407.5
			c6.2,6.2,34.7,21.7,39.1,23.8c3.5,1.8,7.6,5.6,10.6,9.4c-5-4.1-10.3-7.6-15.6-9.4l-3.5-1.2c-11.8-4.1-39.4-13.5-47.3-24.7
			c-2.1-2.9-2.6-5.6-4.1-8.2c1.5,0.9,2.9,1.5,5.3,1.2c0,0,3.5-2.1,5.9-3.5C310.4,399,313.9,403.9,317.1,407.5 M300.1,375.1
			c0.6,2.4,1.8,5.3,1.8,5.3l2.1,7.1c0.3,0.6,0.6,1.5,1.2,2.1c-2.1,1.5-4.4,3.2-5.6,2.6c-0.9-0.3-1.2-1.8-1.5-2.6
			c-0.3-1.2-0.3-2.6-0.3-3.8C297.1,381,298.6,377.8,300.1,375.1 M297.4,368.7c-0.3-0.9-1.8,2.6-1.8,2.6l-2.9,9.4
			c0,1.5-0.3,3.5-0.3,5.3c0,1.5,0.3,2.6,0.3,4.1c-1.8-5.3-2.6-10-2.9-14.4l2.1-2.9l4.7-5.9L297.4,368.7z M293.3,359.9l-2.6,3.8
			c-2.9,4.7-7.3,10.9-10.6,13.8c-0.3-3.8-0.6-7.9-0.9-12l6.5-10l2.6-4.1C290.1,354.6,291.8,357.5,293.3,359.9 M282.4,343.7l1.2-1.8
			c1.2,2.4,2.4,4.7,3.2,6.8l-3.2,5.3l-5,7.9c-0.6-3.2-1.2-6.5-2.1-9.4L282.4,343.7z M280.7,306.7c-0.3-0.6-0.6-0.9-0.9-1.2l-0.9-2.1
			l-1.2,2.1c-1.2,2.4-2.1,5.9-1.8,10.6l-1.2,2.1c-2.1,4.1-5.3,9.7-8.5,13.2c-1.5-1.5-2.9-2.6-4.4-3.8
			c19.1-29.4,33.5-78.8,38.2-106.4c1.8-0.6,3.2-1.8,5-2.6l2.1-1.2c0.3,0,0.6-0.3,0.9-0.6c-0.3,1.8-0.6,3.2-0.6,5
			C301.5,251.7,289.5,289.9,280.7,306.7 M286.8,314.3c-0.9-1.2-1.8-2.1-2.4-3.2c4.4-7.6,9.1-20,13.2-33.8
			C294.2,292.6,290.7,305.8,286.8,314.3 M293.6,322.2c-0.9-0.6-2.1-2.1-3.2-3.5c11.2-20,20-78.5,23.5-104.6c0.9-4.1,1.2-7.3,1.5-9.7
			v-0.9l0,0c4.1-2.1,8.5-5.9,11.5-8.5l-0.6,8.5c-3.5,2.9-8.8,9.4-9.7,23.2l-0.6,3.2l0.6,4.4c-0.3,0.3-0.6,0.3-0.6,0.6
			c-5.6,13.2-5.6,23.2-3.5,31.2l-2.6,11.8c-2.9,13.8-5.6,27.3-13.5,46.4L293.6,322.2z M309.2,334.6l-10.9-8.8
			c7.9-19.7,10.9-33.2,13.8-47.3l1.5-7.6c1.5,4.4,3.5,7.9,5,10.6l2.1,3.8l0.3,0.3C318.6,302,314.2,323.7,309.2,334.6 M325.6,351.6
			l-1.8-0.3c-2.1-0.6-4.1-3.8-6.2-7.1l-4.1-5.3c3.5-9.4,7.6-28.5,10.6-45c0.9,5.6,4.1,19.1,7.9,24.7l1.5,2.4l2.4,6.8
			C333.3,336.9,329.5,346.6,325.6,351.6 M340.9,354.6l-3.2-0.9l-4.7-0.9c1.8-4.7,5.6-15.6,5.6-15.6l2.9-8.5c0.6,0.9,0.9,1.5,0.9,1.5
			C338,338.7,339.5,347.8,340.9,354.6 M345.9,356c-0.9-4.7-2.9-15.3-0.6-21.5c0.9,1.5,1.8,3.5,2.4,6.5l1.8,5.9l1.5,5.3l1.5-0.3
			l2.6-1.5c0,0.3,0,0.3,0,0.6v1.8c0,2.1,0,3.5-0.3,5l-5.6-1.2L345.9,356z M353.9,381c-0.6-2.4-0.9-4.1-0.9-5.9
			c0-3.2,0.9-5.9,1.5-7.9c0,0,0-0.3,0.3-0.6l0.6,0.3c0,1.5,0.3,3.2,0.9,5.3c0,0,3.5,15.3,5.3,23.2
			C358.8,391.9,355.6,387.8,353.9,381 M388.8,436.6c0,0.3,0,0.6,0,0.9c-1.5-3.2-2.9-6.2-3.5-7.6c-14.4-22.9-15.3-27.3-20.6-48.2
			l-0.3-1.5c-1.8-7.1-2.4-13.5-2.4-19.7c0-12.9,2.9-22.9,5.3-28.8l4.1-10.6c0,0,7.3-16.5,9.1-20.3c5.6,12.9,7.1,21.5,7.1,44.7
			c0,11.5-0.3,13.8-3.2,28.8l-1.5,7.9c-0.9,4.4-1.2,8.8-1.2,12.9c0,11.2,2.6,21.5,4.7,30L388.8,436.6z M420.6,327.5
			c-0.3-4.7,0-9.1,0-9.1l-2.4-0.3c-2.1,5.3-9.4,17.6-13.2,21.2l-10.9,10c0.9-10-0.3-18.2-1.5-25.9l-1.2-6.8
			c-0.9-6.8-3.5-14.1-6.5-20.6c2.1-1.8,3.8-4.1,4.4-5.6c0,0,0.9-2.1,1.8-4.7c0.6-1.8,0.9-4.1,1.2-5.9c2.4,3.8,6.5,12.3,7.6,16.2
			l0.3,3.2l0.6,2.9l1.8,3.2l1.2-1.5l5.9-10.9l8.5-15.3c2.1,1.2,9.7,7.9,12.9,12.9c0.6,3.2,1.2,6.5,2.6,10.6l0.9,2.9
			c1.8,5.3,2.9,9.7,2.9,13.2c0,2.1-1.2,3.8-2.4,5.6c-0.3-0.9-2.9-8.5-2.9-8.5l-2.1,0.3v7.9l-0.6,16.2c-0.9,6.2-2.9,10.3-5,12.9
			l-2.1-5.9l-1.5-3.8l-0.6-3.8C421.7,338.4,420.9,333.1,420.6,327.5 M460.8,399.5c0,0,0,0.3-0.3,0.6v-5.6l-0.9-5
			c-2.1-6.8-6.5-15.6-7.9-17.6l-0.6-0.9l-0.9,0.6c-0.6,0.6-1.8,1.5-1.8,1.8c0,0-0.3,0.3-0.3,0.6l0,0c-4.1,5.3-9.4,16.8-10.6,25.3
			c-0.6,3.2-1.2,8.2-2.1,13.2c-2.4-9.1-5.9-17.9-8.2-20.9l-0.9-1.2l-0.9,1.2c-1.5,2.1-2.6,3.8-2.9,5.6c-3.5,7.9-5,16.8-3.8,24.7
			c1.2,8.8-1.2,12.6-5.3,16.5c0,0-1.8,2.1-3.8,5l3.8-18.5l5.3-17.3c4.7-13.5,10.6-30,10-41.7c4.1-5,6.5-13.2,7.1-15.9l0.9-4.1
			c0.9-4.7,1.5-9.1,4.4-13.5l2.6-5c0,0,0,0,0.3-0.6c0.6,1.2,1.8,3.2,3.2,5.6c2.1,3.5,4.7,7.1,4.7,7.1c1.5,2.4,4.7,6.8,8.2,11.5
			c-2.9,6.5-2.9,15.9,0,26.2C463.2,389,463.8,392.8,460.8,399.5 M486.7,319.9c-8.2-15-18.5-41.1-27.6-64.9l-2.1,0.6l22.9,80.2
			c-0.9,5-1.2,9.7-1.2,12.6l-1.2,12.3c-5-4.4-12-12.9-16.5-19.4c-5.9-8.5-13.2-21.5-14.7-27.6l-2.9-10.3c3.8-5.3,8.5-14.4,7.3-23.2
			c-0.9-7.1-3.2-11.5-5.9-15l3.2-9.4c0.6-5.6,1.8-15-1.5-24.1c1.2-3.5,1.8-8.2,1.8-12.6c0-4.1-0.6-7.9-2.1-11.2c0,0-0.9-1.5-2.4-3.2
			c1.8-3.8,3.2-6.5,4.4-6.8c0.6,0,1.5,0.3,2.6,1.5c1.8,1.8,3.2,5.3,4.4,11.8l0.6,3.2c3.8,29.4,19.7,68.2,40.3,102
			C493.2,317,489.6,317.8,486.7,319.9 M503.7,363.4c0,0-2.1,1.2-4.1,2.1c0-2.4,0.3-7.6,0.6-13.8c1.5,1.8,2.6,2.9,2.6,2.9
			s4.4,5,5.6,6.5C507,361.9,503.7,363.4,503.7,363.4 M487.3,401c-4.1,9.7-9.7,16.2-15,21.7c5-7.9,10.3-16.8,14.4-23.8l6.5-10.9
			c4.4-7.3,15.6-16.5,22.6-19.4c0.3,0.3,0.6,0.6,0.6,0.9C498.4,383.7,491.1,391.3,487.3,401 M537.5,376c-2.1-0.9-4.7-3.2-7.3-5.3
			L524,366c-3.2-2.1-18.2-17.3-24.1-26.2c-1.2-7.1-1.5-13.2-0.9-15c0.3-1.2,0.6-1.5,0.9-1.8c12,18.8,25.6,35.9,39.1,47.9
			C539,373.1,538.1,374.9,537.5,376 M540.5,368.7c-12.9-11.8-25.3-27-37-45l-0.6-1.2l0.9-0.6l-1.8-3.5l-1.2-2.4l-1.8,0.3l-0.9-1.2
			c-21.2-35-36.7-74.4-40.6-104c1.2-2.1,3.5-4.1,6.8-6.8c7.9,32,17.6,59.1,30.9,82.3c9.4,25.3,33.2,61.7,47,74.4
			C541.6,363.7,541.1,366.3,540.5,368.7 M543.4,356c-0.3,0.9-0.3,1.8-0.6,2.6c-11.8-11.5-29.1-37.6-39.7-59.7
			c11.2,16.8,25,32.9,42.3,50.3L543.4,356z M482.3,216.2l0.6,1.8c7.3,23.2,40.6,82.3,70.5,114.3c-2.4,2.6-4.4,5.9-6.5,10.3l-0.3,0.9
			c-43.2-43.8-63.2-80.8-76.4-144c1.5-0.9,2.6-2.1,4.1-2.9l4.1-2.9c2.1-1.5,2.6-1.2,2.6-1.2c0.6,0.3,0.3,2.6-0.6,7.1
			c0,0-0.6,0.6-0.6,2.6c0,1.2,0,1.8,0,2.1v2.1c0,2.6,0.9,5,0.9,5 M554.9,330.8c-29.7-32-62.6-90.2-69.7-113.4l-0.6-2.1l-1.5-7.6
			l3.2-4.1l2.6-4.1c1.5-2.4,2.4-2.4,2.4-2.4c0.9,0,2.4,4.7,2.4,4.7c6.5,26.2,22,54.4,40.9,79.6c7.3,10.6,19.4,26.7,31.4,42
			C561.6,325.8,557.8,327.8,554.9,330.8 M561.3,388.1c0.6-2.1,1.5-4.7,1.5-4.7c0.9-2.6,1.5-5.3,2.4-7.9c2.9,2.6,5.6,5.9,4.7,8.5
			C566.3,385.4,563.1,387.2,561.3,388.1 M579.3,379.3c0,0-3.2,1.5-7.3,3.5c0-3.8-3.2-7.1-6.5-10c0.6-2.6,1.2-5.3,1.8-7.9
			c3.5,2.4,9.1,5.3,9.1,5.3l8.5,5C582.8,376.9,581,378.4,579.3,379.3 M568.4,355.5c0-0.6,0.3-1.5,0.3-2.4c0-1.2,0-2.4-0.3-3.5
			c0-0.3,0-0.6,0-0.6c6.2,5.3,15.6,13.8,22.6,18.8C585.1,365.2,573.4,359,568.4,355.5 M592.5,366c-7.6-5.6-18.8-15.3-24.7-20.6
			c-0.3-3.2-0.6-6.5-0.6-9.4c0-4.1,0.3-7.3,0.6-10.3c11.5,14.4,22.3,27.3,29.1,33.5C595.4,361.6,594,364,592.5,366 M601,350.2
			c-0.6,2.1-1.8,4.7-3.2,7.3c-8.5-8.2-25.3-28.5-39.7-47.9c14.4,15.3,29.4,28.5,43.5,37.6C601.3,348.1,601.3,349.3,601,350.2
			 M602.8,340.8c-49.4-33.2-92.9-108.2-104.9-138.4l5-11.2c0.6-1.8,1.2-2.1,1.5-2.1c0,0,0.3,0,0.6,0.3
			c15.6,44.7,59.4,114,98.5,145.8C603.1,336.9,602.8,339,602.8,340.8 M618.1,329c-3.8-6.2-10.3-13.8-15-17.6l-0.9-0.9
			c-3.5-4.7-7.1-9.4-10.3-14.1c10.6,10.3,24.4,21.2,29.7,25.6l0.9,0.9C620.7,325.5,619.2,327.8,618.1,329 M628,316.1
			c0,0-0.6,0.9-1.5,2.1c-40.3-31.7-82-88.8-99.9-136.4c2.9-3.8,5.6-8.5,6.5-13.8c1.5,1.2,2.6,2.4,4.1,3.8v0.3
			c9.4,34.1,60.8,113.7,92.3,142.5C629.2,314.9,628.3,315.5,628,316.1 M636.3,309.9c-1.8,0.9-3.5,1.8-5,2.9
			c-31.7-29.1-84.1-109.9-92.3-143.1c0-4.4,0.9-17,2.1-19.7c1.2-0.6,4.4,3.2,6.2,5l3.5,2.9c0.6,1.5,1.2,2.6,1.8,4.1
			c12,45.8,53.5,114,83.8,137.5C636.3,303.7,636.6,307.3,636.3,309.9 M643,307.3c0-26.4-11.8-109-17.6-124.9
			c0.3-0.9,0.6-1.5,0.6-2.4l0.6-1.8l0.6-5l0.6-5c0.3-2.1,0.6-3.8,0.9-5.6c8.5,23.8,22.9,96.4,23.5,142.5
			C649.2,305.8,646,306.4,643,307.3 M637.7,357.5c0.6-1.8,1.2-4.1,1.2-4.1c2.4-8.8,6.2-22.3,12.9-34.4c-0.3,12.3-0.9,24.7-2.1,36.7
			C645.4,355.8,640.7,356.6,637.7,357.5 M624.2,464.5c-5,5.6-10,10.3-15.6,14.1c-2.1,1.2-2.9,1.5-3.2,1.2c0.3,0,1.2-1.8,1.2-1.8
			c4.4-5.6,30.6-59.7,33.2-97.3l3.8-3.8c1.5-1.8,2.9-3.2,4.4-4.7C644.5,401.3,637.5,431,624.2,464.5 M668.9,299
			c0.3,5.9,0.6,12,0.6,17.9c0,55-16.2,109.9-40.9,141.9c12-32.3,18.8-61.1,22.3-89.6c3.2-3.2,6.8-6.2,10.9-9.1l0.9-0.6l-0.6-0.9
			c-1.2-2.6-5.3-3.2-10-3.2c1.2-13.5,1.8-27,2.1-40.9c1.8-2.9,3.5-5.6,5.6-7.9l2.1-1.8h-0.6l0,0h-2.4c-1.2,0-2.9,0-5,0.3
			C653,254.9,636,173,627.8,156.8c-0.6-5.6-2.9-8.8-5-11.8c0,0-0.6-0.9-0.9-1.5c1.8,1.5,3.8,3.2,5,5l1.5,2.6l0,0
			C642.2,173,663.6,219.1,668.9,299 M703.3,363.4c-0.3,0.3-0.6,0.6-0.9,0.9c0,0-1.5,1.8-1.8,2.1c0-0.6,0-1.2,0-1.2l-0.3-3.5
			c-0.6-13.5-2.6-49.7-18.8-111.4c-5-19.1-21.2-53.5-35.6-81.1c5.6,7.9,10,15,11.2,17l1.8,4.4c3.5,9.4,11.2,29.4,21.7,47l4.7,11.5
			c0,0,0,0,0.3,0.3C705,304.6,708.3,353.4,703.3,363.4 M715.6,313.4c0,1.2,0,2.1,0,3.2c0,17.3-3.2,32-8.5,41.4
			c2.6-17.6-2.4-58.8-17.3-103.7c3.5,3.8,8.5,8.5,13.8,12.3C710.6,276.1,715,293.7,715.6,313.4 M730.6,268.8
			c-3.5,1.8-11.8,1.8-18.5-2.9c-1.8-1.2-3.5-2.6-5-4.1c-0.3-0.3-0.6-0.9-0.9-1.2c-17.9-17.3-27.9-40.3-35.9-58.5l-9.1-19.1
			c-10.9-19.7-20.6-34.4-30.9-43.5c0.3-4.1,0.3-8.8,0-13.2c12,9.4,33.8,53.2,38.5,65.8c5,13.8,31.2,68.2,61.7,76.4
			C730.6,268.5,730.6,268.8,730.6,268.8 M691.5,204.1l15,24.4c8.2,13.2,18.8,30.3,22.6,37.3c-29.1-9.7-54.4-63.5-58.2-74.4
			c-5-13.5-27.9-59.7-40.3-67.6c-0.3,0-0.3,0-0.6,0c-0.3-3.2-0.9-5.9-1.8-7.9l-7.3-10.6l-1.2-1.5l8.8-0.3
			c10.3,2.9,45.8,28.5,50.3,37.6c3.5,7.9,25.3,43.2,48.2,59.7c-13.2-2.6-24.4-7.6-49.7-43.2c-7.9-11.2-26.4-33.2-33.5-38.2l-1.5,1.5
			C649.5,131.8,687.7,196.5,691.5,204.1"/>
		<path class="st0" d="M294.8,532.7c-0.3,0-0.3,0.9-0.3,0.9l-0.3,0.9c-0.3,0.9,0,2.1,0,3.2s0.3,2.6,0.3,3.5
			c0.9,7.6,9.1,21.7,20.6,27.3c2.1,0.9,5.9,2.6,7.3,1.8l0.6-0.3v-0.9c0-0.6-0.3-1.8-6.8-5c-7.9-3.8-17-17.6-17.6-23.5
			c-0.9-7.1-2.4-7.3-2.9-7.6"/>
		<path class="st0" d="M538.1,72.4c0.3-1.2-0.3-2.1-1.2-2.6l-2.1-0.9c-3.5-1.5-9.4-3.8-9.7-11.2c-0.3-2.9,0.3-4.7,1.8-5.3
			c3.2-1.5,10,2.9,13.8,6.2c7.9,7.3,10.9,16.8,8.5,26.4l2.1,0.9c0-0.3,0-0.3,0.3-0.6l0,0v-0.3c1.8-2.6,2.9-5.3,2.9-8.2
			c0-7.3-4.7-14.7-6.5-17.6C540.5,46,527.8,43.3,524,43.3c-5,0-8.2,2.1-8.8,5.3c-0.3,2.4,0.6,3.2,1.8,4.1l1.8,2.1l0.6,3.5l0.3,3.5
			c2.1,5.3,9.4,9.7,15.6,11.5C535.2,73.3,537.5,73.9,538.1,72.4"/>
	</g>
</g>
</svg>
