<?xml version="1.0" encoding="utf-8"?>
<!-- Generator: Adobe Illustrator 19.1.0, SVG Export Plug-In . SVG Version: 6.00 Build 0)  -->
<svg version="1.1" id="Layer_1" xmlns="http://www.w3.org/2000/svg" xmlns:xlink="http://www.w3.org/1999/xlink" x="0px" y="0px"
	 width="200px" height="126.5px" viewBox="-205 333.5 200 126.5" style="enable-background:new -205 333.5 200 126.5;"
	 xml:space="preserve">
<style type="text/css">
	.st0{fill:#FFFFFF;}
	.st1{fill:#FAA61A;}
	.st2{fill:#817B75;}
	.st3{fill:#8B0021;}
</style>
<rect x="-205" y="333.5" class="st0" width="200" height="126.5"/>
<g>
	<path class="st1" d="M-5,460h-200V333.5H-5V460L-5,460z M-199.7,454.7h189.4V338.8h-189.4V454.7L-199.7,454.7z"/>
	<path class="st2" d="M-26.5,445h2v-9.4h3.6v-1.8h-9.1v1.8h3.6V445L-26.5,445z M-37.4,445.2c2.1,0,3.4-0.8,4.6-2l-1.3-1.3
		c-1,0.9-1.8,1.5-3.2,1.5c-2.1,0-3.7-1.8-3.7-4v0c0-2.2,1.6-4,3.7-4c1.3,0,2.2,0.6,3.1,1.4l1.3-1.5c-1.1-1-2.3-1.8-4.4-1.8
		c-3.4,0-5.8,2.6-5.8,5.8v0C-43.1,442.6-40.7,445.2-37.4,445.2 M-52.9,440.5l1.9-4.5l1.9,4.5H-52.9L-52.9,440.5z M-56.8,445h2
		l1.1-2.7h5.3l1.1,2.7h2.1l-4.9-11.3h-1.8L-56.8,445L-56.8,445z M-64.9,439.6v-4h2.3c1.5,0,2.4,0.7,2.4,2v0c0,1.2-0.9,2-2.4,2
		L-64.9,439.6L-64.9,439.6z M-66.9,445h2v-3.6h2.2c2.5,0,4.5-1.3,4.5-3.8v0c0-2.3-1.6-3.8-4.3-3.8h-4.4L-66.9,445L-66.9,445z
		 M-82.2,445h1.9v-8l3.5,5.3h0.1l3.5-5.3v8.1h2v-11.2h-2.1l-3.4,5.3l-3.4-5.3h-2.1L-82.2,445L-82.2,445z M-88.5,445h2v-11.2h-2V445
		L-88.5,445z"/>
	<path class="st2" d="M-102.3,443.5c-1.1,0-1.9-0.7-1.9-1.6v0c0-0.7,0.4-1.4,1.5-1.9l2.5,2.5C-100.8,443.1-101.5,443.5-102.3,443.5
		 M-102,438.2c-0.6-0.7-0.8-1.1-0.8-1.7v0c0-0.8,0.5-1.4,1.3-1.4c0.8,0,1.3,0.5,1.3,1.3v0C-100.2,437.2-100.8,437.8-102,438.2
		 M-97.6,445.2l1.5-1l-1.8-1.8c0.6-0.8,1.1-1.7,1.5-2.6l-1.5-0.8c-0.4,0.8-0.8,1.5-1.2,2.2l-1.9-2c1.5-0.6,2.5-1.4,2.5-2.9v0
		c0-1.5-1.2-2.7-3-2.7c-2,0-3.2,1.3-3.2,2.8v0c0,0.8,0.3,1.5,0.9,2.3c-1.5,0.7-2.4,1.7-2.4,3.1v0c0,1.9,1.6,3.2,3.7,3.2
		c1.4,0,2.5-0.6,3.4-1.5L-97.6,445.2L-97.6,445.2z"/>
	<path class="st2" d="M-118.2,445h2v-4.5l4.5-6.8h-2.3l-3.2,5l-3.1-5h-2.3l4.5,6.8V445L-118.2,445z M-132,439.3v-3.8h2.9
		c1.5,0,2.3,0.7,2.3,1.9v0c0,1.1-0.9,1.9-2.3,1.9H-132L-132,439.3z M-134,445h2v-3.9h2.5l2.8,3.9h2.3l-3-4.2
		c1.6-0.5,2.7-1.6,2.7-3.4v0c0-1-0.3-1.8-0.9-2.4c-0.7-0.7-1.8-1.1-3.2-1.1h-5V445L-134,445z M-140.3,445h2v-11.2h-2V445L-140.3,445
		z M-149.4,445.2c2.9,0,4.8-1.7,4.8-5v-6.4h-2v6.5c0,2.1-1.1,3.1-2.8,3.1c-1.8,0-2.8-1.1-2.8-3.2v-6.4h-2v6.5
		C-154.1,443.5-152.3,445.2-149.4,445.2 M-163.6,443.4c-2.2,0-3.8-1.8-3.8-4v0c0-2.2,1.6-4,3.8-4c2.2,0,3.8,1.8,3.8,4v0
		c0,0.8-0.2,1.5-0.6,2.1l-1.9-1.8l-1.3,1.4l1.9,1.6C-162.2,443.2-162.9,443.4-163.6,443.4 M-158.9,445.3l1.3-1.4l-1.3-1.1
		c0.7-1,1.1-2.2,1.1-3.5v0c0-3.2-2.4-5.8-5.9-5.8c-3.4,0-5.9,2.6-5.9,5.8v0c0,3.2,2.4,5.8,5.8,5.8c1.3,0,2.5-0.4,3.4-1.1
		L-158.9,445.3L-158.9,445.3z M-183,445h1.9v-8l6.2,8h1.7v-11.2h-1.9v7.8l-6-7.8h-1.8V445L-183,445z M-189.4,445h2v-11.2h-2V445
		L-189.4,445z"/>
	<path class="st3" d="M-38.4,423.6h3.5v-14.5l11.2,14.5h3v-20.4h-3.5v14.1l-10.9-14.1h-3.3L-38.4,423.6L-38.4,423.6z M-53.2,424
		c3.6,0,6.5-1.5,8.5-3.2v-8.5h-8.7v3.1h5.2v3.8c-1.2,0.9-3,1.5-4.9,1.5c-4.2,0-6.9-3.1-6.9-7.3v-0.1c0-3.9,2.9-7.2,6.6-7.2
		c2.6,0,4.1,0.8,5.7,2.2l2.3-2.7c-2.1-1.8-4.3-2.8-7.8-2.8c-6.1,0-10.5,4.8-10.5,10.5v0.1C-63.8,419.5-59.6,424-53.2,424
		 M-73.2,423.6h3.6v-20.4h-3.6V423.6L-73.2,423.6z M-92.1,415.6l3.5-8.1l3.5,8.1H-92.1L-92.1,415.6z M-99.2,423.6h3.7l2.1-4.9h9.6
		l2.1,4.9h3.8l-8.9-20.5h-3.3L-99.2,423.6L-99.2,423.6z M-112.8,413.9v-7.3h4.2c2.7,0,4.4,1.2,4.4,3.6v0.1c0,2.1-1.7,3.6-4.4,3.6
		L-112.8,413.9L-112.8,413.9z M-116.3,423.6h3.6v-6.5h4c4.5,0,8.1-2.4,8.1-6.9v-0.1c0-4.1-3-6.8-7.7-6.8h-8L-116.3,423.6
		L-116.3,423.6z M-143.1,423.6h3.5v-14.5l6.4,9.5h0.1l6.4-9.6v14.6h3.6v-20.4h-3.8l-6.2,9.6l-6.2-9.6h-3.8L-143.1,423.6
		L-143.1,423.6z M-162,415.6l3.5-8.1l3.5,8.1H-162L-162,415.6z M-169.1,423.6h3.7l2.1-4.9h9.6l2.1,4.9h3.8l-8.9-20.5h-3.3
		L-169.1,423.6L-169.1,423.6z M-180.7,424c3.8,0,6.1-1.4,8.3-3.6l-2.3-2.3c-1.7,1.6-3.3,2.6-5.8,2.6c-3.9,0-6.7-3.3-6.7-7.2v-0.1
		c0-4,2.8-7.2,6.7-7.2c2.3,0,4.1,1,5.7,2.5l2.3-2.6c-1.9-1.9-4.2-3.2-8-3.2c-6.2,0-10.5,4.7-10.5,10.5v0.1
		C-191,419.4-186.6,424-180.7,424"/>
	<path class="st3" d="M-28.3,359h1.8v-4.1h5.1v-1.6h-5.1v-2.8h5.8v-1.6h-7.6V359L-28.3,359z M-37,357.6c-2,0-3.4-1.6-3.4-3.6v0
		c0-2,1.4-3.6,3.4-3.6c2,0,3.4,1.6,3.4,3.6v0C-33.6,356-35,357.6-37,357.6 M-37,359.2c3.1,0,5.3-2.4,5.3-5.2v0
		c0-2.9-2.2-5.2-5.3-5.2c-3.1,0-5.3,2.4-5.3,5.2v0C-42.3,356.8-40.2,359.2-37,359.2 M-54.3,359h1.8v-4l4-6.1h-2l-2.9,4.5l-2.8-4.5
		h-2.1l4,6.1L-54.3,359L-54.3,359z M-65.8,359h1.8v-8.5h3.2v-1.7H-69v1.6h3.2V359L-65.8,359z M-73.7,359h1.8v-10.2h-1.8V359
		L-73.7,359z M-80.7,359.2c2.1,0,3.6-1.1,3.6-3v0c0-1.7-1.1-2.4-3.3-3c-1.9-0.5-2.4-0.8-2.4-1.6v0c0-0.7,0.6-1.2,1.7-1.2
		c0.9,0,1.8,0.4,2.8,1l1-1.3c-1-0.8-2.2-1.3-3.7-1.3c-2,0-3.5,1.2-3.5,2.9v0c0,1.9,1.2,2.5,3.4,3c1.9,0.4,2.3,0.8,2.3,1.6v0
		c0,0.8-0.7,1.3-1.8,1.3c-1.3,0-2.2-0.5-3.2-1.3l-1.1,1.3C-83.8,358.6-82.3,359.2-80.7,359.2 M-94.1,353.9v-3.4h2.6
		c1.3,0,2.1,0.6,2.1,1.7v0c0,1-0.8,1.7-2.1,1.7H-94.1L-94.1,353.9z M-95.9,359h1.8v-3.5h2.2l2.5,3.5h2.1l-2.7-3.9
		c1.4-0.4,2.4-1.4,2.4-3.1v0c0-0.9-0.3-1.6-0.8-2.2c-0.7-0.6-1.7-1-2.9-1h-4.5L-95.9,359L-95.9,359z M-106.9,359h7.6v-1.6h-5.8v-2.7
		h5.1v-1.6h-5.1v-2.6h5.8v-1.6h-7.5V359L-106.9,359z M-115.5,359.1h1.6l4.2-10.2h-1.9l-3.1,7.8l-3.1-7.8h-2L-115.5,359.1
		L-115.5,359.1z M-124.4,359h1.8v-10.2h-1.8V359L-124.4,359z M-137.2,359h1.8v-7.2l5.6,7.2h1.5v-10.2h-1.8v7l-5.4-7h-1.7L-137.2,359
		L-137.2,359z M-145.4,359.2c2.7,0,4.4-1.5,4.4-4.6v-5.8h-1.8v5.9c0,1.9-1,2.8-2.6,2.8c-1.6,0-2.6-1-2.6-2.9v-5.8h-1.8v5.9
		C-149.7,357.7-148,359.2-145.4,359.2 M-166.1,359h7.6v-1.6h-5.8v-2.7h5.1v-1.6h-5.1v-2.6h5.8v-1.6h-7.5V359L-166.1,359z
		 M-178.4,359h1.8v-4.3h4.9v4.3h1.8v-10.2h-1.8v4.2h-4.9v-4.2h-1.8V359L-178.4,359z M-186.3,359h1.8v-8.5h3.2v-1.7h-8.2v1.6h3.2V359
		L-186.3,359z"/>
	<path class="st3" d="M-31.6,389.3c-4.9,0-8.4-4-8.4-8.8v-0.1c0-4.8,3.4-8.7,8.3-8.7s8.4,4,8.4,8.8v0.1
		C-23.2,385.4-26.6,389.3-31.6,389.3 M-31.6,393.3c7.6,0,13-5.8,13-12.8v-0.1c0-7-5.3-12.7-12.9-12.7c-7.6,0-13,5.8-13,12.8v0.1
		C-44.5,387.6-39.2,393.3-31.6,393.3 M-59.9,393.3c4.4,0,7.9-1.8,10.3-3.9v-10.4h-10.5v3.8h6.3v4.6c-1.5,1.1-3.6,1.9-6,1.9
		c-5.1,0-8.4-3.8-8.4-8.8v-0.1c0-4.7,3.5-8.7,8-8.7c3.1,0,5,1,6.9,2.6l2.8-3.3c-2.5-2.2-5.2-3.4-9.5-3.4c-7.5,0-12.8,5.9-12.8,12.8
		v0.1C-72.8,387.8-67.7,393.3-59.9,393.3 M-92,383.1l4.2-9.9l4.3,9.9H-92L-92,383.1z M-100.6,392.9h4.4l2.5-6h11.7l2.5,6h4.6
		L-85.6,368h-4L-100.6,392.9L-100.6,392.9z M-113.4,393.3c4.6,0,7.5-1.7,10-4.4l-2.8-2.8c-2.1,2-4.1,3.2-7.1,3.2
		c-4.7,0-8.2-4-8.2-8.8v-0.1c0-4.8,3.4-8.7,8.2-8.7c2.8,0,4.9,1.2,6.9,3.1l2.8-3.2c-2.4-2.3-5.1-3.8-9.7-3.8
		c-7.5,0-12.8,5.8-12.8,12.8v0.1C-125.9,387.7-120.6,393.3-113.4,393.3 M-135.8,392.9h4.4v-24.7h-4.4V392.9L-135.8,392.9z
		 M-163.3,392.9h4.4v-10.4h11.8v10.4h4.3v-24.7h-4.3v10.3h-11.8v-10.3h-4.4V392.9L-163.3,392.9z M-178.8,393.3c4.6,0,7.5-1.7,10-4.4
		l-2.8-2.8c-2.1,2-4.1,3.2-7.1,3.2c-4.7,0-8.2-4-8.2-8.8v-0.1c0-4.8,3.4-8.7,8.2-8.7c2.8,0,5,1.2,6.9,3.1l2.8-3.2
		c-2.4-2.3-5.1-3.8-9.7-3.8c-7.5,0-12.8,5.8-12.8,12.8v0.1C-191.3,387.7-186,393.3-178.8,393.3"/>
</g>
</svg>
